<svg width="241" height="362" viewBox="0 0 241 362" fill="none" xmlns="http://www.w3.org/2000/svg">
<path d="M199.452 1H40.6905C18.77 1 1 18.9086 1 41V321C1 343.091 18.77 361 40.6905 361H199.452C221.373 361 239.143 343.091 239.143 321V41C239.143 18.9086 221.373 1 199.452 1Z" fill="white" stroke="black" stroke-width="2"/>
<path d="M199.452 21H40.6905C29.7302 21 20.8452 29.9543 20.8452 41V321C20.8452 332.046 29.7302 341 40.6905 341H199.452C210.413 341 219.298 332.046 219.298 321V41C219.298 29.9543 210.413 21 199.452 21Z" fill="black"/>
<path fill-rule="evenodd" clip-rule="evenodd" d="M179.607 80.9999C91.9253 80.9999 20.8452 152.634 20.8452 241C20.8452 263.091 38.6152 281 60.5357 281C148.217 281 219.298 209.365 219.298 121C219.298 98.9085 201.528 80.9999 179.607 80.9999Z" fill="#AD03FC"/>
<mask id="path-4-outside-1_1_971" maskUnits="userSpaceOnUse" x="141.878" y="115.042" width="66.9575" height="78.4888" fill="black">
<rect fill="white" x="141.878" y="115.042" width="66.9575" height="78.4888"/>
<path d="M189.508 184.181L161.984 191.342C160.881 191.629 160.012 191.607 159.377 191.277C158.786 190.872 158.358 190.116 158.091 189.008L155.629 178.77C155.362 177.661 155.405 176.813 155.758 176.226C156.154 175.565 156.904 175.091 158.007 174.804L181.437 168.707C182.192 168.511 182.687 168.134 182.924 167.577C183.204 166.946 183.26 166.28 183.091 165.58C182.853 164.589 182.474 163.912 181.956 163.551C181.495 163.175 180.88 163.056 180.111 163.194L166.604 164.756C162.399 165.23 158.796 164.742 155.794 163.292C152.85 161.826 150.789 158.643 149.611 153.743L147.401 144.555C146.209 139.596 146.894 135.389 149.456 131.933C152.005 128.418 156.095 125.928 161.727 124.463L186.115 118.117C187.219 117.83 188.066 117.889 188.656 118.293C189.291 118.624 189.742 119.343 190.008 120.452L192.513 130.865C192.779 131.973 192.714 132.858 192.318 133.519C191.966 134.106 191.238 134.544 190.135 134.831L169.84 140.111C169.085 140.308 168.568 140.721 168.288 141.352C167.993 141.924 167.937 142.59 168.12 143.348C168.302 144.107 168.66 144.695 169.193 145.115C169.725 145.534 170.376 145.675 171.145 145.537L184.544 143.91C188.749 143.436 192.352 143.924 195.354 145.374C198.356 146.825 200.446 150 201.624 154.9L203.834 164.088C205.026 169.047 204.319 173.291 201.713 176.821C199.151 180.277 195.082 182.73 189.508 184.181ZM183.306 127.216L163.97 132.248C161.299 132.943 159.332 134.26 158.071 136.2C156.796 138.081 156.439 140.189 157 142.522L158.726 149.698C159.301 152.09 160.165 153.631 161.319 154.323C162.516 154.941 163.905 155.2 165.485 155.098L184.768 154.079C186.478 154.006 187.924 154.374 189.105 155.182C190.331 155.917 191.274 157.656 191.933 160.397L193.153 165.473C193.715 167.806 193.365 169.943 192.103 171.883C190.886 173.749 188.942 175.03 186.271 175.725L164.583 181.368L164.794 182.243L186.482 176.6C189.443 175.829 191.598 174.401 192.948 172.314C194.283 170.169 194.642 167.813 194.024 165.246L192.804 160.171C192.074 157.137 190.989 155.188 189.547 154.324C188.163 153.444 186.558 153.056 184.732 153.159L165.449 154.178C164.057 154.292 162.857 154.047 161.847 153.442C160.838 152.836 160.088 151.513 159.597 149.471L157.871 142.296C157.38 140.254 157.699 138.373 158.828 136.654C159.957 134.934 161.741 133.757 164.18 133.123L183.516 128.092L183.306 127.216Z"/>
</mask>
<path d="M189.508 184.181L161.984 191.342C160.881 191.629 160.012 191.607 159.377 191.277C158.786 190.872 158.358 190.116 158.091 189.008L155.629 178.77C155.362 177.661 155.405 176.813 155.758 176.226C156.154 175.565 156.904 175.091 158.007 174.804L181.437 168.707C182.192 168.511 182.687 168.134 182.924 167.577C183.204 166.946 183.26 166.28 183.091 165.58C182.853 164.589 182.474 163.912 181.956 163.551C181.495 163.175 180.88 163.056 180.111 163.194L166.604 164.756C162.399 165.23 158.796 164.742 155.794 163.292C152.85 161.826 150.789 158.643 149.611 153.743L147.401 144.555C146.209 139.596 146.894 135.389 149.456 131.933C152.005 128.418 156.095 125.928 161.727 124.463L186.115 118.117C187.219 117.83 188.066 117.889 188.656 118.293C189.291 118.624 189.742 119.343 190.008 120.452L192.513 130.865C192.779 131.973 192.714 132.858 192.318 133.519C191.966 134.106 191.238 134.544 190.135 134.831L169.84 140.111C169.085 140.308 168.568 140.721 168.288 141.352C167.993 141.924 167.937 142.59 168.12 143.348C168.302 144.107 168.66 144.695 169.193 145.115C169.725 145.534 170.376 145.675 171.145 145.537L184.544 143.91C188.749 143.436 192.352 143.924 195.354 145.374C198.356 146.825 200.446 150 201.624 154.9L203.834 164.088C205.026 169.047 204.319 173.291 201.713 176.821C199.151 180.277 195.082 182.73 189.508 184.181ZM183.306 127.216L163.97 132.248C161.299 132.943 159.332 134.26 158.071 136.2C156.796 138.081 156.439 140.189 157 142.522L158.726 149.698C159.301 152.09 160.165 153.631 161.319 154.323C162.516 154.941 163.905 155.2 165.485 155.098L184.768 154.079C186.478 154.006 187.924 154.374 189.105 155.182C190.331 155.917 191.274 157.656 191.933 160.397L193.153 165.473C193.715 167.806 193.365 169.943 192.103 171.883C190.886 173.749 188.942 175.03 186.271 175.725L164.583 181.368L164.794 182.243L186.482 176.6C189.443 175.829 191.598 174.401 192.948 172.314C194.283 170.169 194.642 167.813 194.024 165.246L192.804 160.171C192.074 157.137 190.989 155.188 189.547 154.324C188.163 153.444 186.558 153.056 184.732 153.159L165.449 154.178C164.057 154.292 162.857 154.047 161.847 153.442C160.838 152.836 160.088 151.513 159.597 149.471L157.871 142.296C157.38 140.254 157.699 138.373 158.828 136.654C159.957 134.934 161.741 133.757 164.18 133.123L183.516 128.092L183.306 127.216Z" fill="#DB8FFF"/>
<path d="M159.377 191.277L158.809 192.111L158.857 192.144L158.909 192.171L159.377 191.277ZM155.758 176.226L156.607 176.735L156.607 176.735L155.758 176.226ZM182.924 167.577L182.016 167.178L182.012 167.186L182.009 167.195L182.924 167.577ZM181.956 163.551L181.322 164.336L181.351 164.36L181.381 164.381L181.956 163.551ZM180.111 163.194L180.209 164.192L180.24 164.189L180.27 164.183L180.111 163.194ZM166.604 164.756L166.699 165.754L166.702 165.754L166.604 164.756ZM155.794 163.292L155.342 164.194L155.352 164.199L155.794 163.292ZM149.456 131.933L150.25 132.526L150.256 132.517L149.456 131.933ZM188.656 118.293L188.088 119.127L188.137 119.16L188.188 119.187L188.656 118.293ZM168.288 141.352L169.17 141.803L169.183 141.777L169.195 141.75L168.288 141.352ZM171.145 145.537L171.042 144.539L171.014 144.543L170.986 144.548L171.145 145.537ZM184.544 143.91L184.449 142.912L184.441 142.913L184.544 143.91ZM195.354 145.374L195.796 144.467V144.467L195.354 145.374ZM201.713 176.821L202.507 177.414L202.508 177.412L201.713 176.821ZM183.306 127.216L184.274 126.965L184.04 125.992L183.072 126.244L183.306 127.216ZM158.071 136.2L158.89 136.757L158.896 136.749L158.901 136.741L158.071 136.2ZM161.319 154.323L160.8 155.188L160.826 155.204L160.854 155.219L161.319 154.323ZM165.485 155.098L165.449 154.095L165.438 154.096L165.485 155.098ZM184.768 154.079L184.742 153.076L184.732 153.076L184.768 154.079ZM189.105 155.182L188.537 156.016L188.561 156.033L188.586 156.048L189.105 155.182ZM192.103 171.883L192.932 172.425L192.933 172.424L192.103 171.883ZM164.583 181.368L164.349 180.395L163.382 180.647L163.616 181.62L164.583 181.368ZM164.794 182.243L163.826 182.495L164.06 183.467L165.028 183.215L164.794 182.243ZM192.948 172.314L193.779 172.853L193.784 172.845L193.788 172.838L192.948 172.314ZM189.547 154.324L189.006 155.176L189.017 155.183L189.028 155.189L189.547 154.324ZM184.732 153.159L184.768 154.162L184.771 154.162L184.732 153.159ZM165.449 154.178L165.413 153.175L165.399 153.176L165.384 153.177L165.449 154.178ZM161.847 153.442L162.366 152.576L162.366 152.576L161.847 153.442ZM183.516 128.092L183.75 129.064L184.718 128.812L184.484 127.84L183.516 128.092ZM189.508 184.181L189.274 183.208L161.75 190.37L161.984 191.342L162.218 192.314L189.742 185.153L189.508 184.181ZM161.984 191.342L161.75 190.37C160.754 190.629 160.17 190.552 159.845 190.383L159.377 191.277L158.909 192.171C159.853 192.663 161.008 192.629 162.218 192.314L161.984 191.342ZM159.377 191.277L159.945 190.442C159.642 190.235 159.3 189.757 159.059 188.756L158.091 189.008L157.123 189.26C157.416 190.475 157.93 191.509 158.809 192.111L159.377 191.277ZM158.091 189.008L159.059 188.756L156.597 178.518L155.629 178.77L154.661 179.021L157.123 189.26L158.091 189.008ZM155.629 178.77L156.597 178.518C156.353 177.502 156.461 176.979 156.607 176.735L155.758 176.226L154.908 175.716C154.35 176.647 154.372 177.82 154.661 179.021L155.629 178.77ZM155.758 176.226L156.607 176.735C156.811 176.396 157.269 176.029 158.241 175.776L158.007 174.804L157.773 173.831C156.539 174.153 155.497 174.734 154.908 175.716L155.758 176.226ZM158.007 174.804L158.241 175.776L181.671 169.679L181.437 168.707L181.203 167.735L157.773 173.831L158.007 174.804ZM181.437 168.707L181.671 169.679C182.63 169.43 183.442 168.892 183.838 167.958L182.924 167.577L182.009 167.195C181.932 167.375 181.753 167.592 181.203 167.735L181.437 168.707ZM182.924 167.577L183.831 167.975C184.207 167.128 184.277 166.233 184.059 165.329L183.091 165.58L182.124 165.832C182.243 166.328 182.2 166.764 182.016 167.178L182.924 167.577ZM183.091 165.58L184.059 165.329C183.796 164.235 183.334 163.281 182.53 162.722L181.956 163.551L181.381 164.381C181.614 164.543 181.91 164.943 182.124 165.832L183.091 165.58ZM181.956 163.551L182.589 162.767C181.845 162.159 180.913 162.033 179.952 162.206L180.111 163.194L180.27 164.183C180.848 164.079 181.145 164.192 181.322 164.336L181.956 163.551ZM180.111 163.194L180.014 162.197L166.507 163.758L166.604 164.756L166.702 165.754L180.209 164.192L180.111 163.194ZM166.604 164.756L166.51 163.758C162.442 164.217 159.034 163.736 156.236 162.385L155.794 163.292L155.352 164.199C158.558 165.748 162.357 166.244 166.699 165.754L166.604 164.756ZM155.794 163.292L156.246 162.39C153.672 161.108 151.724 158.256 150.579 153.491L149.611 153.743L148.643 153.995C149.854 159.031 152.029 162.545 155.342 164.194L155.794 163.292ZM149.611 153.743L150.579 153.491L148.369 144.303L147.401 144.555L146.433 144.807L148.643 153.995L149.611 153.743ZM147.401 144.555L148.369 144.303C147.231 139.573 147.904 135.691 150.25 132.526L149.456 131.933L148.662 131.34C145.884 135.087 145.186 139.62 146.433 144.807L147.401 144.555ZM149.456 131.933L150.256 132.517C152.624 129.252 156.475 126.862 161.961 125.435L161.727 124.463L161.494 123.491C155.714 124.994 151.385 127.584 148.656 131.349L149.456 131.933ZM161.727 124.463L161.961 125.435L186.349 119.089L186.115 118.117L185.882 117.145L161.494 123.491L161.727 124.463ZM186.115 118.117L186.349 119.089C187.334 118.833 187.838 118.955 188.088 119.127L188.656 118.293L189.224 117.459C188.294 116.822 187.104 116.827 185.882 117.145L186.115 118.117ZM188.656 118.293L188.188 119.187C188.458 119.327 188.803 119.714 189.041 120.703L190.008 120.452L190.976 120.2C190.681 118.972 190.125 117.92 189.125 117.399L188.656 118.293ZM190.008 120.452L189.041 120.703L191.545 131.116L192.513 130.865L193.48 130.613L190.976 120.2L190.008 120.452ZM192.513 130.865L191.545 131.116C191.78 132.093 191.672 132.67 191.468 133.009L192.318 133.519L193.168 134.028C193.757 133.046 193.779 131.853 193.48 130.613L192.513 130.865ZM192.318 133.519L191.468 133.009C191.322 133.253 190.912 133.595 189.901 133.858L190.135 134.831L190.368 135.803C191.564 135.492 192.609 134.959 193.168 134.028L192.318 133.519ZM190.135 134.831L189.901 133.858L169.606 139.139L169.84 140.111L170.074 141.083L190.368 135.803L190.135 134.831ZM169.84 140.111L169.606 139.139C168.6 139.401 167.806 139.996 167.38 140.954L168.288 141.352L169.195 141.75C169.33 141.446 169.57 141.215 170.074 141.083L169.84 140.111ZM168.288 141.352L167.405 140.901C166.976 141.737 166.926 142.661 167.152 143.6L168.12 143.348L169.088 143.096C168.949 142.519 169.011 142.112 169.17 141.803L168.288 141.352ZM168.12 143.348L167.152 143.6C167.379 144.543 167.842 145.336 168.572 145.91L169.193 145.115L169.813 144.319C169.477 144.055 169.226 143.67 169.088 143.096L168.12 143.348ZM169.193 145.115L168.572 145.91C169.357 146.528 170.302 146.705 171.304 146.525L171.145 145.537L170.986 144.548C170.45 144.644 170.094 144.54 169.813 144.319L169.193 145.115ZM171.145 145.537L171.248 146.534L184.647 144.907L184.544 143.91L184.441 142.913L171.042 144.539L171.145 145.537ZM184.544 143.91L184.638 144.908C188.706 144.449 192.115 144.93 194.912 146.281L195.354 145.374L195.796 144.467C192.59 142.918 188.791 142.422 184.449 142.912L184.544 143.91ZM195.354 145.374L194.912 146.281C197.54 147.551 199.512 150.394 200.657 155.152L201.624 154.9L202.592 154.649C201.38 149.606 199.171 146.098 195.796 144.467L195.354 145.374ZM201.624 154.9L200.657 155.152L202.866 164.34L203.834 164.088L204.802 163.837L202.592 154.649L201.624 154.9ZM203.834 164.088L202.866 164.34C204.002 169.064 203.313 172.986 200.918 176.229L201.713 176.821L202.508 177.412C205.326 173.597 206.051 169.03 204.802 163.837L203.834 164.088ZM201.713 176.821L200.919 176.228C198.537 179.44 194.703 181.796 189.274 183.208L189.508 184.181L189.742 185.153C195.461 183.665 199.764 181.114 202.507 177.414L201.713 176.821ZM183.306 127.216L183.072 126.244L163.736 131.275L163.97 132.248L164.203 133.22L183.54 128.189L183.306 127.216ZM163.97 132.248L163.736 131.275C160.873 132.02 158.669 133.463 157.242 135.659L158.071 136.2L158.901 136.741C159.996 135.057 161.724 133.865 164.203 133.22L163.97 132.248ZM158.071 136.2L157.252 135.642C155.804 137.779 155.41 140.184 156.033 142.774L157 142.522L157.968 142.27C157.469 140.193 157.788 138.384 158.89 136.757L158.071 136.2ZM157 142.522L156.033 142.774L157.758 149.95L158.726 149.698L159.694 149.446L157.968 142.27L157 142.522ZM158.726 149.698L157.758 149.95C158.349 152.409 159.296 154.287 160.8 155.188L161.319 154.323L161.838 153.457C161.034 152.976 160.253 151.77 159.694 149.446L158.726 149.698ZM161.319 154.323L160.854 155.219C162.234 155.931 163.804 156.211 165.532 156.101L165.485 155.098L165.438 154.096C164.006 154.188 162.799 153.951 161.784 153.427L161.319 154.323ZM165.485 155.098L165.521 156.101L184.804 155.082L184.768 154.079L184.732 153.076L165.449 154.096L165.485 155.098ZM184.768 154.079L184.794 155.083C186.333 155.017 187.561 155.348 188.537 156.016L189.105 155.182L189.673 154.348C188.287 153.4 186.623 152.996 184.742 153.076L184.768 154.079ZM189.105 155.182L188.586 156.048C189.45 156.566 190.316 157.949 190.965 160.649L191.933 160.397L192.901 160.146C192.231 157.362 191.212 155.269 189.624 154.317L189.105 155.182ZM191.933 160.397L190.965 160.649L192.186 165.725L193.153 165.473L194.121 165.221L192.901 160.146L191.933 160.397ZM193.153 165.473L192.186 165.725C192.685 167.802 192.374 169.649 191.274 171.341L192.103 171.883L192.933 172.424C194.355 170.237 194.744 167.81 194.121 165.221L193.153 165.473ZM192.103 171.883L191.274 171.34C190.229 172.944 188.528 174.104 186.037 174.752L186.271 175.725L186.505 176.697C189.356 175.955 191.544 174.554 192.932 172.425L192.103 171.883ZM186.271 175.725L186.037 174.752L164.349 180.395L164.583 181.368L164.817 182.34L186.505 176.697L186.271 175.725ZM164.583 181.368L163.616 181.62L163.826 182.495L164.794 182.243L165.762 181.991L165.551 181.116L164.583 181.368ZM164.794 182.243L165.028 183.215L186.715 177.572L186.482 176.6L186.248 175.627L164.56 181.27L164.794 182.243ZM186.482 176.6L186.715 177.572C189.86 176.754 192.259 175.203 193.779 172.853L192.948 172.314L192.116 171.775C190.938 173.598 189.026 174.904 186.248 175.627L186.482 176.6ZM192.948 172.314L193.788 172.838C195.277 170.447 195.669 167.809 194.992 164.994L194.024 165.246L193.057 165.498C193.614 167.817 193.289 169.891 192.107 171.79L192.948 172.314ZM194.024 165.246L194.992 164.994L193.772 159.919L192.804 160.171L191.836 160.423L193.057 165.498L194.024 165.246ZM192.804 160.171L193.772 159.919C193.027 156.823 191.86 154.534 190.066 153.458L189.547 154.324L189.028 155.189C190.117 155.842 191.122 157.451 191.836 160.423L192.804 160.171ZM189.547 154.324L190.087 153.471C188.513 152.47 186.7 152.043 184.692 152.156L184.732 153.159L184.771 154.162C186.416 154.069 187.813 154.418 189.006 155.176L189.547 154.324ZM184.732 153.159L184.696 152.156L165.413 153.175L165.449 154.178L165.485 155.181L184.768 154.162L184.732 153.159ZM165.449 154.178L165.384 153.177C164.16 153.278 163.171 153.058 162.366 152.576L161.847 153.442L161.328 154.307C162.542 155.035 163.955 155.307 165.513 155.179L165.449 154.178ZM161.847 153.442L162.366 152.576C161.703 152.178 161.037 151.185 160.565 149.219L159.597 149.471L158.629 149.723C159.138 151.84 159.973 153.494 161.328 154.307L161.847 153.442ZM159.597 149.471L160.565 149.219L158.839 142.044L157.871 142.296L156.904 142.547L158.629 149.723L159.597 149.471ZM157.871 142.296L158.839 142.044C158.411 140.265 158.687 138.674 159.656 137.199L158.828 136.654L158.001 136.109C156.712 138.072 156.349 140.243 156.904 142.547L157.871 142.296ZM158.828 136.654L159.656 137.199C160.615 135.738 162.158 134.682 164.414 134.095L164.18 133.123L163.946 132.15C161.325 132.833 159.3 134.131 158.001 136.109L158.828 136.654ZM164.18 133.123L164.414 134.095L183.75 129.064L183.516 128.092L183.282 127.119L163.946 132.15L164.18 133.123ZM183.516 128.092L184.484 127.84L184.274 126.965L183.306 127.216L182.338 127.468L182.548 128.343L183.516 128.092Z" fill="black" mask="url(#path-4-outside-1_1_971)"/>
<mask id="path-6-outside-2_1_971" maskUnits="userSpaceOnUse" x="92.7289" y="137.728" width="66.9575" height="78.4888" fill="black">
<rect fill="white" x="92.7289" y="137.728" width="66.9575" height="78.4888"/>
<path d="M140.358 206.867L112.835 214.029C111.732 214.316 110.862 214.294 110.228 213.963C109.637 213.559 109.208 212.803 108.942 211.694L106.48 201.456C106.213 200.348 106.256 199.5 106.608 198.912C107.005 198.251 107.754 197.777 108.858 197.49L132.288 191.394C133.042 191.197 133.538 190.821 133.774 190.263C134.054 189.632 134.11 188.967 133.942 188.267C133.703 187.275 133.325 186.599 132.806 186.238C132.346 185.862 131.731 185.743 130.962 185.881L117.455 187.443C113.25 187.917 109.647 187.429 106.645 185.978C103.701 184.513 101.64 181.33 100.461 176.43L98.2518 167.242C97.0594 162.283 97.7444 158.076 100.307 154.619C102.855 151.105 106.946 148.615 112.578 147.149L136.966 140.804C138.069 140.517 138.916 140.575 139.507 140.979C140.142 141.31 140.593 142.03 140.859 143.138L143.363 153.551C143.63 154.66 143.565 155.544 143.168 156.205C142.816 156.793 142.088 157.23 140.985 157.517L120.691 162.798C119.936 162.994 119.418 163.408 119.138 164.039C118.844 164.611 118.788 165.276 118.97 166.035C119.153 166.793 119.51 167.382 120.043 167.801C120.576 168.221 121.227 168.361 121.996 168.223L135.394 166.596C139.599 166.122 143.203 166.61 146.205 168.061C149.206 169.511 151.297 172.687 152.475 177.587L154.684 186.775C155.877 191.734 155.17 195.978 152.564 199.507C150.001 202.963 145.933 205.417 140.358 206.867ZM134.156 149.903L114.82 154.934C112.149 155.629 110.183 156.947 108.922 158.886C107.647 160.768 107.29 162.875 107.851 165.209L109.576 172.384C110.152 174.776 111.016 176.318 112.17 177.01C113.367 177.628 114.756 177.886 116.336 177.785L135.619 176.766C137.329 176.693 138.774 177.061 139.956 177.869C141.182 178.604 142.124 180.342 142.783 183.084L144.004 188.159C144.565 190.493 144.215 192.629 142.954 194.569C141.737 196.436 139.793 197.716 137.122 198.411L115.434 204.054L115.644 204.929L137.332 199.286C140.294 198.516 142.449 197.087 143.798 195C145.133 192.855 145.492 190.5 144.875 187.933L143.654 182.857C142.925 179.824 141.839 177.875 140.397 177.01C139.014 176.131 137.409 175.742 135.582 175.846L116.299 176.865C114.908 176.979 113.707 176.733 112.698 176.128C111.689 175.523 110.938 174.199 110.447 172.158L108.722 164.982C108.231 162.94 108.55 161.06 109.679 159.34C110.808 157.621 112.592 156.444 115.031 155.809L134.367 150.778L134.156 149.903Z"/>
</mask>
<path d="M140.358 206.867L112.835 214.029C111.732 214.316 110.862 214.294 110.228 213.963C109.637 213.559 109.208 212.803 108.942 211.694L106.48 201.456C106.213 200.348 106.256 199.5 106.608 198.912C107.005 198.251 107.754 197.777 108.858 197.49L132.288 191.394C133.042 191.197 133.538 190.821 133.774 190.263C134.054 189.632 134.11 188.967 133.942 188.267C133.703 187.275 133.325 186.599 132.806 186.238C132.346 185.862 131.731 185.743 130.962 185.881L117.455 187.443C113.25 187.917 109.647 187.429 106.645 185.978C103.701 184.513 101.64 181.33 100.461 176.43L98.2518 167.242C97.0594 162.283 97.7444 158.076 100.307 154.619C102.855 151.105 106.946 148.615 112.578 147.149L136.966 140.804C138.069 140.517 138.916 140.575 139.507 140.979C140.142 141.31 140.593 142.03 140.859 143.138L143.363 153.551C143.63 154.66 143.565 155.544 143.168 156.205C142.816 156.793 142.088 157.23 140.985 157.517L120.691 162.798C119.936 162.994 119.418 163.408 119.138 164.039C118.844 164.611 118.788 165.276 118.97 166.035C119.153 166.793 119.51 167.382 120.043 167.801C120.576 168.221 121.227 168.361 121.996 168.223L135.394 166.596C139.599 166.122 143.203 166.61 146.205 168.061C149.206 169.511 151.297 172.687 152.475 177.587L154.684 186.775C155.877 191.734 155.17 195.978 152.564 199.507C150.001 202.963 145.933 205.417 140.358 206.867ZM134.156 149.903L114.82 154.934C112.149 155.629 110.183 156.947 108.922 158.886C107.647 160.768 107.29 162.875 107.851 165.209L109.576 172.384C110.152 174.776 111.016 176.318 112.17 177.01C113.367 177.628 114.756 177.886 116.336 177.785L135.619 176.766C137.329 176.693 138.774 177.061 139.956 177.869C141.182 178.604 142.124 180.342 142.783 183.084L144.004 188.159C144.565 190.493 144.215 192.629 142.954 194.569C141.737 196.436 139.793 197.716 137.122 198.411L115.434 204.054L115.644 204.929L137.332 199.286C140.294 198.516 142.449 197.087 143.798 195C145.133 192.855 145.492 190.5 144.875 187.933L143.654 182.857C142.925 179.824 141.839 177.875 140.397 177.01C139.014 176.131 137.409 175.742 135.582 175.846L116.299 176.865C114.908 176.979 113.707 176.733 112.698 176.128C111.689 175.523 110.938 174.199 110.447 172.158L108.722 164.982C108.231 162.94 108.55 161.06 109.679 159.34C110.808 157.621 112.592 156.444 115.031 155.809L134.367 150.778L134.156 149.903Z" fill="#DB8FFF"/>
<path d="M110.228 213.963L109.66 214.797L109.708 214.83L109.759 214.857L110.228 213.963ZM106.608 198.912L107.458 199.422L107.458 199.422L106.608 198.912ZM133.774 190.263L132.867 189.865L132.863 189.873L132.86 189.881L133.774 190.263ZM132.806 186.238L132.172 187.023L132.201 187.046L132.232 187.068L132.806 186.238ZM130.962 185.881L131.059 186.879L131.09 186.875L131.121 186.87L130.962 185.881ZM117.455 187.443L117.55 188.441L117.552 188.441L117.455 187.443ZM106.645 185.978L106.192 186.881L106.203 186.886L106.645 185.978ZM100.307 154.619L101.101 155.213L101.107 155.204L100.307 154.619ZM139.507 140.979L138.939 141.814L138.987 141.847L139.039 141.873L139.507 140.979ZM119.138 164.039L120.021 164.489L120.034 164.463L120.046 164.437L119.138 164.039ZM121.996 168.223L121.893 167.226L121.864 167.229L121.837 167.234L121.996 168.223ZM135.394 166.596L135.3 165.598L135.291 165.599L135.394 166.596ZM146.205 168.061L146.647 167.154V167.154L146.205 168.061ZM152.564 199.507L153.357 200.1L153.358 200.099L152.564 199.507ZM134.156 149.903L135.124 149.651L134.89 148.679L133.923 148.931L134.156 149.903ZM108.922 158.886L109.741 159.444L109.746 159.436L109.752 159.428L108.922 158.886ZM112.17 177.01L111.651 177.875L111.677 177.891L111.705 177.905L112.17 177.01ZM116.336 177.785L116.3 176.782L116.289 176.783L116.336 177.785ZM135.619 176.766L135.593 175.762L135.583 175.763L135.619 176.766ZM139.956 177.869L139.388 178.703L139.412 178.72L139.437 178.734L139.956 177.869ZM142.954 194.569L143.783 195.112L143.784 195.11L142.954 194.569ZM115.434 204.054L115.2 203.082L114.232 203.334L114.466 204.306L115.434 204.054ZM115.644 204.929L114.677 205.181L114.91 206.153L115.878 205.902L115.644 204.929ZM143.798 195L144.629 195.539L144.634 195.532L144.639 195.525L143.798 195ZM140.397 177.01L139.857 177.862L139.867 177.869L139.878 177.876L140.397 177.01ZM135.582 175.846L135.618 176.849L135.622 176.848L135.582 175.846ZM116.299 176.865L116.264 175.862L116.249 175.863L116.235 175.864L116.299 176.865ZM112.698 176.128L113.217 175.263L113.217 175.263L112.698 176.128ZM134.367 150.778L134.601 151.75L135.568 151.499L135.335 150.526L134.367 150.778ZM140.358 206.867L140.125 205.895L112.601 213.056L112.835 214.029L113.069 215.001L140.592 207.839L140.358 206.867ZM112.835 214.029L112.601 213.056C111.604 213.316 111.021 213.239 110.696 213.069L110.228 213.963L109.759 214.857C110.704 215.349 111.859 215.316 113.069 215.001L112.835 214.029ZM110.228 213.963L110.796 213.129C110.493 212.922 110.15 212.444 109.909 211.443L108.942 211.694L107.974 211.946C108.266 213.162 108.781 214.196 109.66 214.797L110.228 213.963ZM108.942 211.694L109.909 211.443L107.447 201.204L106.48 201.456L105.512 201.708L107.974 211.946L108.942 211.694ZM106.48 201.456L107.447 201.204C107.203 200.189 107.312 199.666 107.458 199.422L106.608 198.912L105.759 198.403C105.2 199.334 105.223 200.507 105.512 201.708L106.48 201.456ZM106.608 198.912L107.458 199.422C107.662 199.082 108.12 198.715 109.091 198.462L108.858 197.49L108.624 196.518C107.389 196.839 106.348 197.42 105.759 198.403L106.608 198.912ZM108.858 197.49L109.091 198.462L132.521 192.366L132.288 191.394L132.054 190.422L108.624 196.518L108.858 197.49ZM132.288 191.394L132.521 192.366C133.481 192.116 134.293 191.579 134.689 190.645L133.774 190.263L132.86 189.881C132.783 190.062 132.604 190.278 132.054 190.422L132.288 191.394ZM133.774 190.263L134.682 190.661C135.058 189.814 135.127 188.919 134.91 188.015L133.942 188.267L132.974 188.519C133.093 189.015 133.051 189.451 132.867 189.865L133.774 190.263ZM133.942 188.267L134.91 188.015C134.647 186.921 134.185 185.968 133.38 185.408L132.806 186.238L132.232 187.068C132.465 187.23 132.76 187.629 132.974 188.519L133.942 188.267ZM132.806 186.238L133.44 185.453C132.696 184.846 131.763 184.72 130.803 184.892L130.962 185.881L131.121 186.87C131.698 186.766 131.995 186.878 132.172 187.023L132.806 186.238ZM130.962 185.881L130.864 184.883L117.358 186.445L117.455 187.443L117.552 188.441L131.059 186.879L130.962 185.881ZM117.455 187.443L117.36 186.445C113.292 186.903 109.884 186.423 107.087 185.071L106.645 185.978L106.203 186.886C109.409 188.435 113.208 188.931 117.55 188.441L117.455 187.443ZM106.645 185.978L107.097 185.076C104.522 183.795 102.575 180.943 101.429 176.178L100.461 176.43L99.4936 176.681C100.705 181.717 102.88 185.231 106.192 186.881L106.645 185.978ZM100.461 176.43L101.429 176.178L99.2196 166.99L98.2518 167.242L97.2841 167.493L99.4936 176.681L100.461 176.43ZM98.2518 167.242L99.2196 166.99C98.0821 162.259 98.7542 158.377 101.101 155.212L100.307 154.619L99.513 154.026C96.7345 157.774 96.0367 162.307 97.2841 167.493L98.2518 167.242ZM100.307 154.619L101.107 155.204C103.474 151.939 107.326 149.549 112.812 148.122L112.578 147.149L112.344 146.177C106.565 147.681 102.236 150.271 99.5065 154.035L100.307 154.619ZM112.578 147.149L112.812 148.122L137.2 141.776L136.966 140.804L136.732 139.832L112.344 146.177L112.578 147.149ZM136.966 140.804L137.2 141.776C138.184 141.52 138.688 141.642 138.939 141.814L139.507 140.979L140.075 140.145C139.144 139.509 137.954 139.514 136.732 139.832L136.966 140.804ZM139.507 140.979L139.039 141.873C139.308 142.014 139.653 142.401 139.891 143.39L140.859 143.138L141.827 142.886C141.532 141.658 140.975 140.606 139.975 140.085L139.507 140.979ZM140.859 143.138L139.891 143.39L142.395 153.803L143.363 153.551L144.331 153.299L141.827 142.886L140.859 143.138ZM143.363 153.551L142.395 153.803C142.63 154.779 142.522 155.356 142.319 155.696L143.168 156.205L144.018 156.715C144.607 155.732 144.629 154.54 144.331 153.299L143.363 153.551ZM143.168 156.205L142.319 155.696C142.173 155.94 141.762 156.282 140.751 156.545L140.985 157.517L141.219 158.49C142.415 158.179 143.46 157.646 144.018 156.715L143.168 156.205ZM140.985 157.517L140.751 156.545L120.457 161.826L120.691 162.798L120.925 163.77L141.219 158.49L140.985 157.517ZM120.691 162.798L120.457 161.826C119.451 162.087 118.656 162.683 118.231 163.64L119.138 164.039L120.046 164.437C120.181 164.133 120.421 163.901 120.925 163.77L120.691 162.798ZM119.138 164.039L118.256 163.588C117.826 164.423 117.777 165.348 118.003 166.287L118.97 166.035L119.938 165.783C119.799 165.205 119.862 164.799 120.021 164.489L119.138 164.039ZM118.97 166.035L118.003 166.287C118.229 167.229 118.693 168.023 119.423 168.597L120.043 167.801L120.663 167.006C120.328 166.741 120.076 166.357 119.938 165.783L118.97 166.035ZM120.043 167.801L119.423 168.597C120.207 169.215 121.152 169.392 122.154 169.212L121.996 168.223L121.837 167.234C121.301 167.331 120.944 167.227 120.663 167.006L120.043 167.801ZM121.996 168.223L122.099 169.22L135.497 167.594L135.394 166.596L135.291 165.599L121.893 167.226L121.996 168.223ZM135.394 166.596L135.489 167.595C139.557 167.136 142.965 167.616 145.763 168.968L146.205 168.061L146.647 167.154C143.44 165.604 139.641 165.109 135.3 165.598L135.394 166.596ZM146.205 168.061L145.763 168.968C148.391 170.238 150.363 173.08 151.507 177.839L152.475 177.587L153.443 177.335C152.23 172.293 150.022 168.785 146.647 167.154L146.205 168.061ZM152.475 177.587L151.507 177.839L153.717 187.027L154.684 186.775L155.652 186.523L153.443 177.335L152.475 177.587ZM154.684 186.775L153.717 187.027C154.853 191.751 154.164 195.672 151.769 198.916L152.564 199.507L153.358 200.099C156.176 196.283 156.901 191.717 155.652 186.523L154.684 186.775ZM152.564 199.507L151.77 198.914C149.388 202.127 145.554 204.482 140.125 205.895L140.358 206.867L140.592 207.839C146.312 206.351 150.614 203.8 153.357 200.1L152.564 199.507ZM134.156 149.903L133.923 148.931L114.586 153.962L114.82 154.934L115.054 155.907L134.39 150.875L134.156 149.903ZM114.82 154.934L114.586 153.962C111.724 154.707 109.519 156.15 108.092 158.345L108.922 158.886L109.752 159.428C110.847 157.743 112.575 156.552 115.054 155.907L114.82 154.934ZM108.922 158.886L108.103 158.329C106.655 160.465 106.26 162.871 106.883 165.461L107.851 165.209L108.819 164.957C108.319 162.88 108.639 161.07 109.741 159.444L108.922 158.886ZM107.851 165.209L106.883 165.461L108.609 172.636L109.576 172.384L110.544 172.133L108.819 164.957L107.851 165.209ZM109.576 172.384L108.609 172.636C109.2 175.095 110.147 176.974 111.651 177.875L112.17 177.01L112.689 176.144C111.885 175.662 111.103 174.457 110.544 172.133L109.576 172.384ZM112.17 177.01L111.705 177.905C113.084 178.617 114.655 178.898 116.383 178.787L116.336 177.785L116.289 176.783C114.857 176.874 113.65 176.638 112.634 176.114L112.17 177.01ZM116.336 177.785L116.372 178.788L135.654 177.769L135.619 176.766L135.583 175.763L116.3 176.782L116.336 177.785ZM135.619 176.766L135.644 177.769C137.184 177.704 138.411 178.035 139.388 178.703L139.956 177.869L140.524 177.035C139.137 176.086 137.473 175.682 135.593 175.763L135.619 176.766ZM139.956 177.869L139.437 178.734C140.301 179.252 141.166 180.636 141.816 183.336L142.783 183.084L143.751 182.832C143.082 180.049 142.062 177.955 140.475 177.003L139.956 177.869ZM142.783 183.084L141.816 183.336L143.036 188.411L144.004 188.159L144.972 187.908L143.751 182.832L142.783 183.084ZM144.004 188.159L143.036 188.411C143.536 190.489 143.224 192.336 142.124 194.028L142.954 194.569L143.784 195.11C145.206 192.923 145.594 190.497 144.972 187.908L144.004 188.159ZM142.954 194.569L142.125 194.027C141.079 195.631 139.379 196.791 136.888 197.439L137.122 198.411L137.356 199.384C140.207 198.642 142.395 197.241 143.783 195.112L142.954 194.569ZM137.122 198.411L136.888 197.439L115.2 203.082L115.434 204.054L115.668 205.027L137.356 199.384L137.122 198.411ZM115.434 204.054L114.466 204.306L114.677 205.181L115.644 204.929L116.612 204.678L116.402 203.803L115.434 204.054ZM115.644 204.929L115.878 205.902L137.566 200.259L137.332 199.286L137.098 198.314L115.411 203.957L115.644 204.929ZM137.332 199.286L137.566 200.259C140.71 199.441 143.11 197.89 144.629 195.539L143.798 195L142.967 194.461C141.788 196.285 139.877 197.591 137.098 198.314L137.332 199.286ZM143.798 195L144.639 195.525C146.127 193.133 146.52 190.495 145.843 187.681L144.875 187.933L143.907 188.185C144.465 190.504 144.139 192.577 142.957 194.476L143.798 195ZM144.875 187.933L145.843 187.681L144.622 182.606L143.654 182.857L142.687 183.109L143.907 188.185L144.875 187.933ZM143.654 182.857L144.622 182.606C143.878 179.51 142.711 177.221 140.916 176.145L140.397 177.01L139.878 177.876C140.968 178.529 141.972 180.138 142.687 183.109L143.654 182.857ZM140.397 177.01L140.938 176.158C139.363 175.157 137.551 174.729 135.543 174.843L135.582 175.846L135.622 176.848C137.266 176.755 138.664 177.104 139.857 177.862L140.397 177.01ZM135.582 175.846L135.547 174.843L116.264 175.862L116.299 176.865L116.335 177.868L135.618 176.849L135.582 175.846ZM116.299 176.865L116.235 175.864C115.01 175.964 114.022 175.745 113.217 175.263L112.698 176.128L112.179 176.994C113.393 177.722 114.805 177.994 116.364 177.866L116.299 176.865ZM112.698 176.128L113.217 175.263C112.554 174.865 111.888 173.872 111.415 171.906L110.447 172.158L109.48 172.409C109.989 174.527 110.824 176.181 112.179 176.994L112.698 176.128ZM110.447 172.158L111.415 171.906L109.69 164.73L108.722 164.982L107.754 165.234L109.48 172.409L110.447 172.158ZM108.722 164.982L109.69 164.73C109.262 162.951 109.537 161.361 110.506 159.885L109.679 159.34L108.852 158.795C107.562 160.759 107.2 162.93 107.754 165.234L108.722 164.982ZM109.679 159.34L110.506 159.885C111.465 158.425 113.008 157.369 115.264 156.782L115.031 155.809L114.797 154.837C112.175 155.519 110.151 156.817 108.852 158.795L109.679 159.34ZM115.031 155.809L115.264 156.782L134.601 151.75L134.367 150.778L134.133 149.806L114.797 154.837L115.031 155.809ZM134.367 150.778L135.335 150.526L135.124 149.651L134.156 149.903L133.189 150.155L133.399 151.03L134.367 150.778Z" fill="black" mask="url(#path-6-outside-2_1_971)"/>
<mask id="path-8-outside-3_1_971" maskUnits="userSpaceOnUse" x="43.5795" y="159.429" width="66.9575" height="78.4888" fill="black">
<rect fill="white" x="43.5795" y="159.429" width="66.9575" height="78.4888"/>
<path d="M91.2089 228.567L63.6854 235.729C62.5821 236.016 61.7131 235.994 61.0782 235.663C60.4874 235.259 60.0588 234.503 59.7922 233.395L57.3302 223.156C57.0637 222.048 57.1065 221.2 57.4589 220.612C57.8552 219.951 58.605 219.477 59.7083 219.19L83.1381 213.094C83.893 212.898 84.3885 212.521 84.6247 211.963C84.9049 211.333 84.9608 210.667 84.7925 209.967C84.554 208.975 84.1754 208.299 83.6567 207.938C83.1961 207.562 82.5813 207.443 81.8124 207.581L68.3055 209.143C64.1006 209.617 60.4972 209.129 57.4953 207.679C54.5515 206.213 52.4903 203.03 51.3119 198.13L49.1024 188.942C47.91 183.983 48.595 179.776 51.1573 176.32C53.7057 172.805 57.7961 170.315 63.4286 168.85L87.8165 162.504C88.9198 162.217 89.7668 162.276 90.3576 162.68C90.9924 163.01 91.4431 163.73 91.7097 164.838L94.2138 175.252C94.4803 176.36 94.4154 177.245 94.0191 177.906C93.6668 178.493 92.939 178.931 91.8357 179.218L71.5414 184.498C70.7866 184.694 70.269 185.108 69.9888 185.739C69.6946 186.311 69.6387 186.977 69.821 187.735C70.0034 188.493 70.361 189.082 70.8937 189.502C71.4264 189.921 72.0772 190.061 72.8461 189.923L86.2449 188.297C90.4498 187.822 94.0532 188.311 97.0551 189.761C100.057 191.212 102.147 194.387 103.326 199.287L105.535 208.475C106.728 213.434 106.021 217.678 103.414 221.208C100.852 224.664 96.7833 227.117 91.2089 228.567ZM85.007 171.603L65.6708 176.634C62.9998 177.329 61.0337 178.647 59.7725 180.587C58.4974 182.468 58.1404 184.576 58.7015 186.909L60.4271 194.085C61.0022 196.476 61.8666 198.018 63.0201 198.71C64.2177 199.328 65.6064 199.586 67.1863 199.485L86.4692 198.466C88.1792 198.393 89.625 198.761 90.8066 199.569C92.0322 200.304 92.9747 202.042 93.634 204.784L94.8545 209.86C95.4157 212.193 95.0657 214.33 93.8046 216.269C92.5875 218.136 90.6434 219.417 87.9724 220.112L66.2845 225.755L66.4949 226.63L88.1828 220.987C91.1442 220.216 93.2995 218.787 94.6487 216.701C95.9838 214.556 96.3428 212.2 95.7255 209.633L94.505 204.558C93.7756 201.524 92.6899 199.575 91.248 198.71C89.8641 197.831 88.2591 197.443 86.4329 197.546L67.15 198.565C65.7584 198.679 64.5579 198.434 63.5486 197.828C62.5392 197.223 61.7891 195.9 61.298 193.858L59.5725 186.682C59.0815 184.641 59.4005 182.76 60.5295 181.041C61.6585 179.321 63.4424 178.144 65.8812 177.51L85.2174 172.478L85.007 171.603Z"/>
</mask>
<path d="M91.2089 228.567L63.6854 235.729C62.5821 236.016 61.7131 235.994 61.0782 235.663C60.4874 235.259 60.0588 234.503 59.7922 233.395L57.3302 223.156C57.0637 222.048 57.1065 221.2 57.4589 220.612C57.8552 219.951 58.605 219.477 59.7083 219.19L83.1381 213.094C83.893 212.898 84.3885 212.521 84.6247 211.963C84.9049 211.333 84.9608 210.667 84.7925 209.967C84.554 208.975 84.1754 208.299 83.6567 207.938C83.1961 207.562 82.5813 207.443 81.8124 207.581L68.3055 209.143C64.1006 209.617 60.4972 209.129 57.4953 207.679C54.5515 206.213 52.4903 203.03 51.3119 198.13L49.1024 188.942C47.91 183.983 48.595 179.776 51.1573 176.32C53.7057 172.805 57.7961 170.315 63.4286 168.85L87.8165 162.504C88.9198 162.217 89.7668 162.276 90.3576 162.68C90.9924 163.01 91.4431 163.73 91.7097 164.838L94.2138 175.252C94.4803 176.36 94.4154 177.245 94.0191 177.906C93.6668 178.493 92.939 178.931 91.8357 179.218L71.5414 184.498C70.7866 184.694 70.269 185.108 69.9888 185.739C69.6946 186.311 69.6387 186.977 69.821 187.735C70.0034 188.493 70.361 189.082 70.8937 189.502C71.4264 189.921 72.0772 190.061 72.8461 189.923L86.2449 188.297C90.4498 187.822 94.0532 188.311 97.0551 189.761C100.057 191.212 102.147 194.387 103.326 199.287L105.535 208.475C106.728 213.434 106.021 217.678 103.414 221.208C100.852 224.664 96.7833 227.117 91.2089 228.567ZM85.007 171.603L65.6708 176.634C62.9998 177.329 61.0337 178.647 59.7725 180.587C58.4974 182.468 58.1404 184.576 58.7015 186.909L60.4271 194.085C61.0022 196.476 61.8666 198.018 63.0201 198.71C64.2177 199.328 65.6064 199.586 67.1863 199.485L86.4692 198.466C88.1792 198.393 89.625 198.761 90.8066 199.569C92.0322 200.304 92.9747 202.042 93.634 204.784L94.8545 209.86C95.4157 212.193 95.0657 214.33 93.8046 216.269C92.5875 218.136 90.6434 219.417 87.9724 220.112L66.2845 225.755L66.4949 226.63L88.1828 220.987C91.1442 220.216 93.2995 218.787 94.6487 216.701C95.9838 214.556 96.3428 212.2 95.7255 209.633L94.505 204.558C93.7756 201.524 92.6899 199.575 91.248 198.71C89.8641 197.831 88.2591 197.443 86.4329 197.546L67.15 198.565C65.7584 198.679 64.5579 198.434 63.5486 197.828C62.5392 197.223 61.7891 195.9 61.298 193.858L59.5725 186.682C59.0815 184.641 59.4005 182.76 60.5295 181.041C61.6585 179.321 63.4424 178.144 65.8812 177.51L85.2174 172.478L85.007 171.603Z" fill="#DB8FFF"/>
<path d="M61.0782 235.663L60.5102 236.498L60.5583 236.53L60.61 236.557L61.0782 235.663ZM57.4589 220.613L58.3085 221.122L58.3085 221.122L57.4589 220.613ZM84.6247 211.963L83.7172 211.565L83.7136 211.573L83.7102 211.582L84.6247 211.963ZM83.6567 207.938L83.0228 208.723L83.0517 208.747L83.0824 208.768L83.6567 207.938ZM81.8124 207.581L81.9098 208.579L81.9407 208.575L81.9713 208.57L81.8124 207.581ZM68.3055 209.143L68.4001 210.141L68.4029 210.141L68.3055 209.143ZM57.4953 207.679L57.043 208.581L57.0533 208.586L57.4953 207.679ZM51.1573 176.32L51.9512 176.913L51.9576 176.904L51.1573 176.32ZM90.3576 162.68L89.7896 163.514L89.8377 163.547L89.8894 163.574L90.3576 162.68ZM69.9888 185.739L70.8711 186.19L70.8845 186.164L70.8963 186.137L69.9888 185.739ZM72.8461 189.923L72.7431 188.926L72.7151 188.93L72.6872 188.935L72.8461 189.923ZM86.2449 188.297L86.1503 187.299L86.1419 187.3L86.2449 188.297ZM97.0551 189.761L97.4971 188.854V188.854L97.0551 189.761ZM103.414 221.208L104.208 221.801L104.209 221.799L103.414 221.208ZM85.007 171.603L85.9748 171.352L85.741 170.379L84.7732 170.631L85.007 171.603ZM59.7725 180.587L60.5915 181.144L60.597 181.136L60.6024 181.128L59.7725 180.587ZM63.0201 198.71L62.5011 199.575L62.5276 199.591L62.5551 199.605L63.0201 198.71ZM67.1863 199.485L67.1504 198.482L67.1394 198.483L67.1863 199.485ZM86.4692 198.466L86.4433 197.463L86.4333 197.463L86.4692 198.466ZM90.8066 199.569L90.2386 200.403L90.2626 200.42L90.2876 200.435L90.8066 199.569ZM93.8046 216.269L94.6337 216.812L94.6344 216.811L93.8046 216.269ZM66.2845 225.755L66.0507 224.782L65.0829 225.034L65.3167 226.006L66.2845 225.755ZM66.4949 226.63L65.5271 226.881L65.7609 227.854L66.7287 227.602L66.4949 226.63ZM94.6487 216.701L95.4799 217.24L95.4847 217.232L95.4894 217.225L94.6487 216.701ZM91.248 198.71L90.7074 199.563L90.7181 199.57L90.729 199.576L91.248 198.71ZM86.4329 197.546L86.4688 198.549L86.4724 198.549L86.4329 197.546ZM67.15 198.565L67.1142 197.562L67.0998 197.563L67.0855 197.564L67.15 198.565ZM63.5486 197.828L64.0675 196.963L64.0675 196.963L63.5486 197.828ZM85.2174 172.478L85.4512 173.451L86.419 173.199L86.1852 172.227L85.2174 172.478ZM91.2089 228.567L90.9751 227.595L63.4516 234.757L63.6854 235.729L63.9192 236.701L91.4428 229.54L91.2089 228.567ZM63.6854 235.729L63.4516 234.757C62.455 235.016 61.8715 234.939 61.5464 234.769L61.0782 235.663L60.61 236.557C61.5546 237.049 62.7092 237.016 63.9192 236.701L63.6854 235.729ZM61.0782 235.663L61.6462 234.829C61.3437 234.622 61.0008 234.144 60.76 233.143L59.7922 233.395L58.8245 233.646C59.1168 234.862 59.6312 235.896 60.5102 236.498L61.0782 235.663ZM59.7922 233.395L60.76 233.143L58.298 222.905L57.3302 223.156L56.3624 223.408L58.8245 233.646L59.7922 233.395ZM57.3302 223.156L58.298 222.905C58.0538 221.889 58.1622 221.366 58.3085 221.122L57.4589 220.613L56.6092 220.103C56.0509 221.034 56.0736 222.207 56.3624 223.408L57.3302 223.156ZM57.4589 220.613L58.3085 221.122C58.5121 220.782 58.9702 220.416 59.9421 220.163L59.7083 219.19L59.4745 218.218C58.2397 218.539 57.1983 219.121 56.6092 220.103L57.4589 220.613ZM59.7083 219.19L59.9421 220.163L83.3719 214.066L83.1381 213.094L82.9043 212.122L59.4745 218.218L59.7083 219.19ZM83.1381 213.094L83.3719 214.066C84.3314 213.817 85.1434 213.279 85.5392 212.345L84.6247 211.963L83.7102 211.582C83.6336 211.762 83.4546 211.979 82.9043 212.122L83.1381 213.094ZM84.6247 211.963L85.5322 212.362C85.9084 211.514 85.9777 210.619 85.7603 209.715L84.7925 209.967L83.8247 210.219C83.944 210.715 83.9014 211.151 83.7172 211.565L84.6247 211.963ZM84.7925 209.967L85.7603 209.715C85.4972 208.621 85.0352 207.668 84.2311 207.108L83.6567 207.938L83.0824 208.768C83.3156 208.93 83.6108 209.33 83.8247 210.219L84.7925 209.967ZM83.6567 207.938L84.2907 207.153C83.5464 206.546 82.6139 206.42 81.6535 206.592L81.8124 207.581L81.9713 208.57C82.5487 208.466 82.8457 208.578 83.0228 208.723L83.6567 207.938ZM81.8124 207.581L81.7151 206.583L68.2082 208.145L68.3055 209.143L68.4029 210.141L81.9098 208.579L81.8124 207.581ZM68.3055 209.143L68.2109 208.145C64.1428 208.604 60.7347 208.123 57.9373 206.772L57.4953 207.679L57.0533 208.586C60.2596 210.135 64.0584 210.631 68.4001 210.141L68.3055 209.143ZM57.4953 207.679L57.9476 206.777C55.3728 205.495 53.4255 202.643 52.2797 197.878L51.3119 198.13L50.3442 198.382C51.5551 203.418 53.7301 206.932 57.043 208.581L57.4953 207.679ZM51.3119 198.13L52.2797 197.878L50.0702 188.69L49.1024 188.942L48.1347 189.194L50.3442 198.382L51.3119 198.13ZM49.1024 188.942L50.0702 188.69C48.9327 183.96 49.6048 180.077 51.9511 176.913L51.1573 176.32L50.3635 175.727C47.5851 179.474 46.8873 184.007 48.1347 189.194L49.1024 188.942ZM51.1573 176.32L51.9576 176.904C54.3247 173.639 58.1767 171.249 63.6624 169.822L63.4286 168.85L63.1947 167.877C57.4155 169.381 53.0867 171.971 50.3571 175.735L51.1573 176.32ZM63.4286 168.85L63.6624 169.822L88.0503 163.476L87.8165 162.504L87.5827 161.532L63.1947 167.877L63.4286 168.85ZM87.8165 162.504L88.0503 163.476C89.0347 163.22 89.5387 163.342 89.7896 163.514L90.3576 162.68L90.9256 161.846C89.9949 161.209 88.8049 161.214 87.5827 161.532L87.8165 162.504ZM90.3576 162.68L89.8894 163.574C90.159 163.714 90.5041 164.101 90.7419 165.09L91.7097 164.838L92.6774 164.587C92.3822 163.359 91.8259 162.307 90.8258 161.786L90.3576 162.68ZM91.7097 164.838L90.7419 165.09L93.246 175.503L94.2138 175.252L95.1816 175L92.6774 164.587L91.7097 164.838ZM94.2138 175.252L93.246 175.503C93.4808 176.48 93.373 177.057 93.1694 177.396L94.0191 177.906L94.8687 178.415C95.4578 177.433 95.4798 176.24 95.1816 175L94.2138 175.252ZM94.0191 177.906L93.1694 177.396C93.0231 177.64 92.6128 177.982 91.6019 178.245L91.8357 179.218L92.0695 180.19C93.2651 179.879 94.3104 179.346 94.8687 178.415L94.0191 177.906ZM91.8357 179.218L91.6019 178.245L71.3076 183.526L71.5414 184.498L71.7753 185.47L92.0695 180.19L91.8357 179.218ZM71.5414 184.498L71.3076 183.526C70.3016 183.788 69.5068 184.383 69.0814 185.341L69.9888 185.739L70.8963 186.137C71.0313 185.833 71.2715 185.601 71.7753 185.47L71.5414 184.498ZM69.9888 185.739L69.1065 185.288C68.6771 186.124 68.6274 187.048 68.8533 187.987L69.821 187.735L70.7888 187.483C70.6499 186.906 70.7121 186.499 70.8711 186.19L69.9888 185.739ZM69.821 187.735L68.8533 187.987C69.08 188.93 69.5436 189.723 70.2733 190.297L70.8937 189.502L71.5141 188.706C71.1783 188.442 70.9268 188.057 70.7888 187.483L69.821 187.735ZM70.8937 189.502L70.2733 190.297C71.0579 190.915 72.003 191.092 73.005 190.912L72.8461 189.923L72.6872 188.935C72.1514 189.031 71.7949 188.927 71.5141 188.706L70.8937 189.502ZM72.8461 189.923L72.9491 190.921L86.3478 189.294L86.2449 188.297L86.1419 187.3L72.7431 188.926L72.8461 189.923ZM86.2449 188.297L86.3394 189.295C90.4076 188.836 93.8157 189.317 96.6131 190.668L97.0551 189.761L97.4971 188.854C94.2908 187.305 90.492 186.809 86.1503 187.299L86.2449 188.297ZM97.0551 189.761L96.6131 190.668C99.2414 191.938 101.214 194.781 102.358 199.539L103.326 199.287L104.293 199.035C103.081 193.993 100.873 190.485 97.4971 188.854L97.0551 189.761ZM103.326 199.287L102.358 199.539L104.567 208.727L105.535 208.475L106.503 208.223L104.293 199.035L103.326 199.287ZM105.535 208.475L104.567 208.727C105.703 213.451 105.014 217.373 102.619 220.616L103.414 221.208L104.209 221.799C107.027 217.983 107.752 213.417 106.503 208.223L105.535 208.475ZM103.414 221.208L102.62 220.615C100.239 223.827 96.4045 226.182 90.9751 227.595L91.2089 228.567L91.4428 229.54C97.1622 228.052 101.465 225.5 104.208 221.801L103.414 221.208ZM85.007 171.603L84.7732 170.631L65.437 175.662L65.6708 176.635L65.9046 177.607L85.2408 172.576L85.007 171.603ZM65.6708 176.635L65.437 175.662C62.5743 176.407 60.3699 177.85 58.9427 180.046L59.7725 180.587L60.6024 181.128C61.6974 179.444 63.4252 178.252 65.9046 177.607L65.6708 176.635ZM59.7725 180.587L58.9536 180.029C57.5056 182.166 57.1109 184.571 57.7338 187.161L58.7015 186.909L59.6693 186.657C59.1698 184.58 59.4892 182.771 60.5915 181.144L59.7725 180.587ZM58.7015 186.909L57.7338 187.161L59.4593 194.336L60.4271 194.085L61.3948 193.833L59.6693 186.657L58.7015 186.909ZM60.4271 194.085L59.4593 194.336C60.0506 196.795 60.9976 198.674 62.5011 199.575L63.0201 198.71L63.5391 197.844C62.7356 197.362 61.9538 196.157 61.3948 193.833L60.4271 194.085ZM63.0201 198.71L62.5551 199.605C63.9347 200.318 65.5056 200.598 67.2331 200.488L67.1863 199.485L67.1394 198.483C65.7071 198.575 64.5006 198.338 63.4851 197.814L63.0201 198.71ZM67.1863 199.485L67.2221 200.488L86.505 199.469L86.4692 198.466L86.4333 197.463L67.1504 198.482L67.1863 199.485ZM86.4692 198.466L86.495 199.47C88.0344 199.404 89.2621 199.735 90.2386 200.403L90.8066 199.569L91.3746 198.735C89.988 197.786 88.324 197.382 86.4433 197.463L86.4692 198.466ZM90.8066 199.569L90.2876 200.435C91.1514 200.953 92.017 202.336 92.6663 205.036L93.634 204.784L94.6018 204.532C93.9324 201.749 92.9131 199.655 91.3256 198.704L90.8066 199.569ZM93.634 204.784L92.6663 205.036L93.8868 210.111L94.8545 209.86L95.8223 209.608L94.6018 204.532L93.634 204.784ZM94.8545 209.86L93.8868 210.111C94.3863 212.189 94.075 214.036 92.9747 215.728L93.8046 216.269L94.6344 216.811C96.0564 214.623 96.445 212.197 95.8223 209.608L94.8545 209.86ZM93.8046 216.269L92.9755 215.727C91.9297 217.331 90.2295 218.491 87.7385 219.139L87.9724 220.112L88.2062 221.084C91.0574 220.342 93.2452 218.941 94.6337 216.812L93.8046 216.269ZM87.9724 220.112L87.7385 219.139L66.0507 224.782L66.2845 225.755L66.5183 226.727L88.2062 221.084L87.9724 220.112ZM66.2845 225.755L65.3167 226.006L65.5271 226.881L66.4949 226.63L67.4627 226.378L67.2523 225.503L66.2845 225.755ZM66.4949 226.63L66.7287 227.602L88.4166 221.959L88.1828 220.987L87.949 220.014L66.2611 225.657L66.4949 226.63ZM88.1828 220.987L88.4166 221.959C91.5608 221.141 93.9603 219.59 95.4799 217.24L94.6487 216.701L93.8174 216.162C92.6387 217.985 90.7276 219.291 87.949 220.014L88.1828 220.987ZM94.6487 216.701L95.4894 217.225C96.9777 214.834 97.3701 212.195 96.6933 209.381L95.7255 209.633L94.7578 209.885C95.3155 212.204 94.99 214.278 93.8079 216.177L94.6487 216.701ZM95.7255 209.633L96.6933 209.381L95.4728 204.306L94.505 204.558L93.5373 204.809L94.7578 209.885L95.7255 209.633ZM94.505 204.558L95.4728 204.306C94.7283 201.21 93.5612 198.921 91.767 197.845L91.248 198.71L90.729 199.576C91.8185 200.229 92.8228 201.838 93.5373 204.809L94.505 204.558ZM91.248 198.71L91.7886 197.858C90.2137 196.857 88.4014 196.43 86.3935 196.543L86.4329 197.546L86.4724 198.549C88.1169 198.456 89.5145 198.804 90.7074 199.563L91.248 198.71ZM86.4329 197.546L86.3971 196.543L67.1142 197.562L67.15 198.565L67.1859 199.568L86.4688 198.549L86.4329 197.546ZM67.15 198.565L67.0855 197.564C65.8609 197.664 64.8722 197.445 64.0675 196.963L63.5486 197.828L63.0296 198.694C64.2436 199.422 65.6559 199.694 67.2146 199.566L67.15 198.565ZM63.5486 197.828L64.0675 196.963C63.4042 196.565 62.7387 195.572 62.2658 193.606L61.298 193.858L60.3303 194.11C60.8394 196.227 61.6743 197.881 63.0296 198.694L63.5486 197.828ZM61.298 193.858L62.2658 193.606L60.5403 186.431L59.5725 186.682L58.6048 186.934L60.3303 194.11L61.298 193.858ZM59.5725 186.682L60.5403 186.431C60.1124 184.651 60.388 183.061 61.3568 181.586L60.5295 181.041L59.7022 180.496C58.4131 182.459 58.0506 184.63 58.6048 186.934L59.5725 186.682ZM60.5295 181.041L61.3568 181.586C62.316 180.125 63.8589 179.069 66.1151 178.482L65.8812 177.51L65.6474 176.537C63.026 177.219 61.0011 178.517 59.7022 180.496L60.5295 181.041ZM65.8812 177.51L66.1151 178.482L85.4512 173.451L85.2174 172.478L84.9836 171.506L65.6474 176.537L65.8812 177.51ZM85.2174 172.478L86.1852 172.227L85.9748 171.352L85.007 171.603L84.0392 171.855L84.2496 172.73L85.2174 172.478Z" fill="black" mask="url(#path-8-outside-3_1_971)"/>
<path d="M153.269 204.072C151.875 204.435 150.782 204.379 149.989 203.903C149.196 203.428 148.631 202.49 148.294 201.09L145.832 190.852C145.65 190.093 145.583 189.429 145.631 188.858C145.737 188.273 145.951 187.752 146.273 187.297L153.216 177.68C149.914 177.547 147.096 176.607 144.763 174.858C142.474 173.036 140.824 170.025 139.814 165.825L137.605 156.637C136.973 154.012 136.848 151.565 137.228 149.297C137.608 147.028 138.442 144.982 139.731 143.159L148.761 130.675C150.02 128.984 151.727 127.486 153.881 126.181C156.021 124.819 158.572 123.752 161.533 122.982L185.921 116.636C187.315 116.273 188.408 116.33 189.201 116.805C189.994 117.281 190.559 118.219 190.896 119.619L193.4 130.032C193.582 130.79 193.621 131.462 193.515 132.048C193.467 132.618 193.282 133.131 192.959 133.587L186.699 142.189C190.553 142.054 193.857 142.837 196.611 144.538C199.409 146.166 201.376 149.342 202.512 154.067L204.721 163.256C205.353 165.881 205.478 168.327 205.098 170.596C204.718 172.864 203.855 174.918 202.507 176.756L193.544 189.13C192.241 190.895 190.512 192.429 188.358 193.734C186.218 195.096 183.696 196.156 180.792 196.911L153.269 204.072ZM189.524 183.574C195.099 182.124 199.167 179.671 201.729 176.214C204.336 172.685 205.043 168.441 203.85 163.482L201.641 154.294C200.462 149.394 198.372 146.218 195.37 144.768C192.369 143.317 188.765 142.829 184.56 143.304L171.161 144.93C170.393 145.068 169.742 144.928 169.209 144.508C168.676 144.089 168.319 143.5 168.136 142.742C167.954 141.984 168.01 141.318 168.304 140.746C168.584 140.115 169.102 139.701 169.857 139.505L190.151 134.224C191.254 133.937 191.982 133.5 192.334 132.913C192.731 132.252 192.796 131.367 192.529 130.258L190.025 119.845C189.758 118.737 189.308 118.017 188.673 117.687C188.082 117.282 187.235 117.224 186.132 117.511L161.744 123.857C156.111 125.322 152.021 127.812 149.473 131.327C146.91 134.783 146.225 138.99 147.418 143.949L149.627 153.137C150.806 158.037 152.867 161.22 155.811 162.686C158.812 164.136 162.416 164.624 166.621 164.15L180.128 162.588C180.897 162.45 181.511 162.569 181.972 162.945C182.491 163.306 182.869 163.982 183.108 164.974C183.276 165.674 183.22 166.34 182.94 166.97C182.704 167.528 182.208 167.905 181.453 168.101L158.024 174.197C156.92 174.484 156.171 174.958 155.774 175.619C155.422 176.207 155.379 177.055 155.646 178.163L158.108 188.401C158.374 189.51 158.803 190.266 159.394 190.67C160.028 191.001 160.897 191.023 162.001 190.736L189.524 183.574ZM183.322 126.61L183.533 127.485L164.197 132.516C161.758 133.151 159.974 134.328 158.845 136.048C157.716 137.767 157.397 139.648 157.888 141.689L159.613 148.865C160.104 150.907 160.855 152.23 161.864 152.835C162.873 153.441 164.074 153.686 165.465 153.572L184.748 152.553C186.574 152.45 188.179 152.838 189.563 153.717C191.005 154.582 192.091 156.531 192.82 159.565L194.041 164.64C194.658 167.207 194.299 169.563 192.964 171.708C191.615 173.794 189.459 175.223 186.498 175.993L164.81 181.637L164.6 180.761L186.288 175.118C188.959 174.423 190.903 173.143 192.12 171.276C193.381 169.337 193.731 167.2 193.17 164.866L191.949 159.791C191.29 157.049 190.348 155.311 189.122 154.576C187.94 153.768 186.495 153.4 184.784 153.473L165.502 154.492C163.922 154.593 162.533 154.335 161.335 153.717C160.182 153.025 159.318 151.483 158.742 149.091L157.017 141.916C156.456 139.583 156.813 137.475 158.088 135.594C159.349 133.654 161.315 132.336 163.986 131.641L183.322 126.61Z" fill="black"/>
<path d="M104.119 226.759C102.726 227.122 101.633 227.065 100.84 226.59C100.046 226.114 99.4816 225.176 99.1449 223.776L96.6829 213.538C96.5005 212.78 96.4333 212.115 96.4813 211.545C96.5873 210.96 96.8014 210.439 97.1237 209.983L104.066 200.366C100.764 200.234 97.9465 199.293 95.6134 197.545C93.3243 195.723 91.6747 192.712 90.6646 188.512L88.4551 179.324C87.8238 176.698 87.6982 174.252 88.0782 171.983C88.4582 169.715 89.2928 167.669 90.582 165.846L99.6113 153.362C100.87 151.67 102.577 150.172 104.731 148.868C106.872 147.505 109.423 146.439 112.384 145.668L136.772 139.323C138.166 138.96 139.259 139.016 140.052 139.492C140.845 139.967 141.41 140.905 141.747 142.305L144.251 152.718C144.433 153.477 144.471 154.149 144.365 154.734C144.317 155.305 144.132 155.818 143.81 156.273L137.549 164.876C141.404 164.741 144.708 165.524 147.461 167.225C150.259 168.852 152.226 172.029 153.362 176.754L155.572 185.942C156.203 188.567 156.329 191.014 155.949 193.283C155.569 195.551 154.705 197.604 153.358 199.443L144.395 211.817C143.092 213.581 141.363 215.116 139.209 216.42C137.068 217.783 134.546 218.842 131.643 219.598L104.119 226.759ZM140.375 206.261C145.949 204.811 150.018 202.357 152.58 198.901C155.186 195.372 155.893 191.127 154.701 186.169L152.491 176.981C151.313 172.08 149.223 168.905 146.221 167.455C143.219 166.004 139.616 165.516 135.411 165.99L122.012 167.617C121.243 167.755 120.592 167.614 120.06 167.195C119.527 166.776 119.169 166.187 118.987 165.429C118.805 164.67 118.861 164.005 119.155 163.432C119.435 162.802 119.952 162.388 120.707 162.192L141.002 156.911C142.105 156.624 142.833 156.187 143.185 155.599C143.581 154.938 143.646 154.053 143.38 152.945L140.876 142.532C140.609 141.424 140.158 140.704 139.524 140.373C138.933 139.969 138.086 139.911 136.982 140.198L112.594 146.543C106.962 148.009 102.872 150.499 100.323 154.013C97.7609 157.469 97.0759 161.677 98.2683 166.635L100.478 175.823C101.656 180.724 103.717 183.907 106.661 185.372C109.663 186.823 113.267 187.311 117.471 186.837L130.978 185.275C131.747 185.137 132.362 185.256 132.823 185.632C133.341 185.993 133.72 186.669 133.958 187.661C134.127 188.361 134.071 189.026 133.791 189.657C133.554 190.214 133.059 190.591 132.304 190.788L108.874 196.884C107.771 197.171 107.021 197.645 106.625 198.306C106.272 198.894 106.23 199.742 106.496 200.85L108.958 211.088C109.225 212.197 109.653 212.953 110.244 213.357C110.879 213.688 111.748 213.71 112.851 213.422L140.375 206.261ZM134.173 149.297L134.383 150.172L115.047 155.203C112.608 155.838 110.824 157.015 109.695 158.734C108.566 160.454 108.247 162.334 108.738 164.376L110.464 171.551C110.955 173.593 111.705 174.917 112.714 175.522C113.724 176.127 114.924 176.373 116.316 176.259L135.599 175.239C137.425 175.136 139.03 175.524 140.414 176.404C141.856 177.269 142.941 179.218 143.671 182.251L144.891 187.326C145.509 189.893 145.15 192.249 143.815 194.394C142.465 196.481 140.31 197.91 137.349 198.68L115.661 204.323L115.45 203.448L137.138 197.805C139.809 197.11 141.753 195.829 142.97 193.963C144.232 192.023 144.582 189.887 144.02 187.553L142.8 182.478C142.141 179.736 141.198 177.998 139.973 177.263C138.791 176.454 137.345 176.087 135.635 176.16L116.352 177.179C114.772 177.28 113.384 177.021 112.186 176.403C111.032 175.712 110.168 174.17 109.593 171.778L107.867 164.603C107.306 162.269 107.663 160.162 108.938 158.28C110.2 156.34 112.166 155.023 114.837 154.328L134.173 149.297Z" fill="black"/>
<path d="M54.9701 248.459C53.5765 248.822 52.4832 248.765 51.6901 248.29C50.8971 247.814 50.3322 246.877 49.9955 245.477L47.5335 235.238C47.3511 234.48 47.2839 233.816 47.3318 233.245C47.4379 232.66 47.652 232.139 47.9743 231.683L54.9167 222.067C51.6147 221.934 48.7971 220.994 46.464 219.245C44.1749 217.423 42.5253 214.412 41.5152 210.212L39.3057 201.024C38.6744 198.399 38.5488 195.952 38.9288 193.683C39.3088 191.415 40.1434 189.369 41.4325 187.546L50.4618 175.062C51.721 173.371 53.4278 171.873 55.5821 170.568C57.7224 169.206 60.2732 168.139 63.2346 167.368L87.6226 161.023C89.0162 160.66 90.1095 160.717 90.9026 161.192C91.6956 161.668 92.2605 162.605 92.5972 164.006L95.1013 174.419C95.2836 175.177 95.3218 175.849 95.2158 176.434C95.1679 177.005 94.9827 177.518 94.6605 177.974L88.3997 186.576C92.2543 186.441 95.5584 187.224 98.312 188.925C101.11 190.553 103.077 193.729 104.213 198.454L106.423 207.642C107.054 210.268 107.179 212.714 106.799 214.983C106.419 217.251 105.556 219.305 104.209 221.143L95.2454 233.517C93.9422 235.282 92.2134 236.816 90.0591 238.121C87.9188 239.483 85.397 240.542 82.4937 241.298L54.9701 248.459ZM91.2254 227.961C96.7998 226.511 100.868 224.057 103.431 220.601C106.037 217.072 106.744 212.828 105.552 207.869L103.342 198.681C102.164 193.781 100.073 190.605 97.0716 189.155C94.0697 187.704 90.4663 187.216 86.2613 187.69L72.8626 189.317C72.0937 189.455 71.4429 189.315 70.9102 188.895C70.3774 188.476 70.0199 187.887 69.8375 187.129C69.6552 186.37 69.7111 185.705 70.0053 185.133C70.2855 184.502 70.8031 184.088 71.5579 183.892L91.8522 178.611C92.9555 178.324 93.6833 177.887 94.0356 177.299C94.4319 176.638 94.4968 175.754 94.2303 174.645L91.7262 164.232C91.4596 163.124 91.0089 162.404 90.3741 162.073C89.7833 161.669 88.9363 161.611 87.833 161.898L63.445 168.243C57.8126 169.709 53.7222 172.199 51.1738 175.713C48.6115 179.17 47.9265 183.377 49.1189 188.336L51.3284 197.524C52.5068 202.424 54.5679 205.607 57.5118 207.072C60.5137 208.523 64.1171 209.011 68.322 208.537L81.8289 206.975C82.5978 206.837 83.2126 206.956 83.6732 207.332C84.1919 207.693 84.5705 208.369 84.809 209.361C84.9773 210.061 84.9214 210.726 84.6412 211.357C84.405 211.915 83.9095 212.291 83.1546 212.488L59.7248 218.584C58.6215 218.871 57.8717 219.345 57.4753 220.006C57.123 220.594 57.0802 221.442 57.3467 222.55L59.8087 232.788C60.0753 233.897 60.5039 234.653 61.0947 235.057C61.7296 235.388 62.5986 235.41 63.7019 235.123L91.2254 227.961ZM85.0235 170.997L85.2339 171.872L65.8977 176.903C63.4589 177.538 61.675 178.715 60.546 180.434C59.417 182.154 59.098 184.034 59.589 186.076L61.3145 193.252C61.8055 195.293 62.5557 196.617 63.565 197.222C64.5744 197.827 65.7749 198.073 67.1665 197.959L86.4494 196.94C88.2756 196.836 89.8806 197.225 91.2644 198.104C92.7064 198.969 93.792 200.918 94.5215 203.951L95.742 209.027C96.3593 211.594 96.0003 213.949 94.6652 216.094C93.316 218.181 91.1607 219.61 88.1993 220.38L66.5114 226.023L66.301 225.148L87.9888 219.505C90.6599 218.81 92.604 217.53 93.8211 215.663C95.0822 213.723 95.4322 211.587 94.871 209.253L93.6505 204.178C92.9912 201.436 92.0487 199.698 90.8231 198.963C89.6415 198.155 88.1957 197.787 86.4857 197.86L67.2027 198.879C65.6229 198.98 64.2341 198.722 63.0366 198.104C61.8831 197.412 61.0187 195.87 60.4435 193.478L58.718 186.303C58.1569 183.969 58.5139 181.862 59.789 179.98C61.0501 178.041 63.0162 176.723 65.6873 176.028L85.0235 170.997Z" fill="black"/>
</svg>
