<svg width="241" height="362" viewBox="0 0 241 362" fill="none" xmlns="http://www.w3.org/2000/svg">
<path d="M199.452 1H40.6905C18.77 1 1 18.9086 1 41V321C1 343.091 18.77 361 40.6905 361H199.452C221.373 361 239.143 343.091 239.143 321V41C239.143 18.9086 221.373 1 199.452 1Z" fill="white" stroke="black" stroke-width="2"/>
<path d="M199.452 21H40.6905C29.7302 21 20.8452 29.9543 20.8452 41V321C20.8452 332.046 29.7302 341 40.6905 341H199.452C210.413 341 219.298 332.046 219.298 321V41C219.298 29.9543 210.413 21 199.452 21Z" fill="#960000"/>
<path fill-rule="evenodd" clip-rule="evenodd" d="M179.607 81C91.9253 81 20.8452 152.634 20.8452 241C20.8452 263.091 38.6152 281 60.5357 281C148.217 281 219.298 209.366 219.298 121C219.298 98.9086 201.528 81 179.607 81Z" fill="white"/>
<path d="M120.071 121C103.631 121 90.3036 134.431 90.3036 151H110.149C110.149 145.477 114.591 141 120.071 141C125.552 141 129.994 145.477 129.994 151C129.994 156.523 125.552 161 120.071 161H108.164V181H120.071C131.066 181 139.917 189.92 139.917 201C139.917 212.08 131.066 221 120.071 221C109.077 221 100.226 212.08 100.226 201H80.381C80.381 223.16 98.0829 241 120.071 241C142.06 241 159.762 223.16 159.762 201C159.762 187.824 153.458 176.28 143.762 169C147.54 163.97 149.839 157.795 149.839 151C149.839 134.431 136.512 121 120.071 121Z" fill="#960000"/>
<path d="M50.6131 31C42.3929 31 35.7291 37.7157 35.7291 46H45.6518C45.6518 43.2386 47.873 41 50.6131 41C53.3531 41 55.5744 43.2386 55.5744 46C55.5744 48.7614 53.3531 51 50.6131 51H44.6595V60.9999H50.6131C56.1102 60.9999 60.5357 65.46 60.5357 71C60.5357 76.54 56.1102 81 50.6131 81C45.1159 81 40.6904 76.54 40.6904 71H30.7678C30.7678 82.08 39.6188 91 50.6131 91C61.6073 91 70.4583 82.08 70.4583 71C70.4583 64.4121 67.3063 58.6398 62.4582 55C64.3474 52.4852 65.497 49.3974 65.497 46C65.497 37.7157 58.8332 31 50.6131 31Z" fill="white"/>
<path d="M189.53 331C197.75 331 204.414 324.284 204.414 316H194.491C194.491 318.761 192.27 321 189.53 321C186.79 321 184.568 318.761 184.568 316C184.568 313.239 186.79 311 189.53 311H195.483V301H189.53C184.033 301 179.607 296.54 179.607 291C179.607 285.46 184.033 281 189.53 281C195.027 281 199.452 285.46 199.452 291H209.375C209.375 279.92 200.524 271 189.53 271C178.535 271 169.684 279.92 169.684 291C169.684 297.588 172.836 303.36 177.685 307C175.795 309.515 174.646 312.603 174.646 316C174.646 324.284 181.31 331 189.53 331Z" fill="white"/>
</svg>
