<svg width="241" height="362" viewBox="0 0 241 362" fill="none" xmlns="http://www.w3.org/2000/svg">
<path d="M199.452 1H40.6905C18.77 1 1 18.9086 1 41V321C1 343.091 18.77 361 40.6905 361H199.452C221.373 361 239.143 343.091 239.143 321V41C239.143 18.9086 221.373 1 199.452 1Z" fill="white" stroke="black" stroke-width="2"/>
<path d="M199.452 21H40.6905C29.7302 21 20.8452 29.9543 20.8452 41V321C20.8452 332.046 29.7302 341 40.6905 341H199.452C210.413 341 219.298 332.046 219.298 321V41C219.298 29.9543 210.413 21 199.452 21Z" fill="#960000"/>
<path fill-rule="evenodd" clip-rule="evenodd" d="M179.607 80.9999C91.9253 80.9999 20.8452 152.634 20.8452 241C20.8452 263.091 38.6152 281 60.5357 281C148.217 281 219.298 209.365 219.298 121C219.298 98.9085 201.528 80.9999 179.607 80.9999Z" fill="white"/>
<path fill-rule="evenodd" clip-rule="evenodd" d="M120.071 121C98.151 121 80.381 138.909 80.381 161V201C80.381 223.091 98.151 241 120.071 241C141.992 241 159.762 223.091 159.762 201V161C159.762 138.909 141.992 121 120.071 121ZM120.071 141C131.032 141 139.917 149.954 139.917 161V201C139.917 212.046 131.032 221 120.071 221C109.111 221 100.226 212.046 100.226 201V161C100.226 149.954 109.111 141 120.071 141Z" fill="#960000"/>
<path fill-rule="evenodd" clip-rule="evenodd" d="M50.6131 31C39.6528 31 30.7678 39.9543 30.7678 51V71C30.7678 82.0457 39.6528 91 50.6131 91C61.5733 91 70.4583 82.0457 70.4583 71V51C70.4583 39.9543 61.5733 31 50.6131 31ZM50.6131 41C56.0932 41 60.5357 45.4772 60.5357 51V71C60.5357 76.5228 56.0932 81 50.6131 81C45.133 81 40.6904 76.5228 40.6904 71V51C40.6904 45.4772 45.133 41 50.6131 41Z" fill="white"/>
<path fill-rule="evenodd" clip-rule="evenodd" d="M189.53 271C178.57 271 169.685 279.954 169.685 291V311C169.685 322.046 178.57 331 189.53 331C200.49 331 209.375 322.046 209.375 311V291C209.375 279.954 200.49 271 189.53 271ZM189.53 281C195.01 281 199.452 285.477 199.452 291V311C199.452 316.523 195.01 321 189.53 321C184.05 321 179.607 316.523 179.607 311V291C179.607 285.477 184.05 281 189.53 281Z" fill="white"/>
</svg>
