<svg width="241" height="362" viewBox="0 0 241 362" fill="none" xmlns="http://www.w3.org/2000/svg">
<path d="M199.452 1H40.6905C18.77 1 1 18.9086 1 41V321C1 343.091 18.77 361 40.6905 361H199.452C221.373 361 239.143 343.091 239.143 321V41C239.143 18.9086 221.373 1 199.452 1Z" fill="white" stroke="black" stroke-width="2"/>
<path d="M199.452 21H40.6906C29.7304 21 20.8453 29.9543 20.8453 41V321C20.8453 332.046 29.7304 341 40.6906 341H199.452C210.413 341 219.298 332.046 219.298 321V41C219.298 29.9543 210.413 21 199.452 21Z" fill="#960000"/>
<path fill-rule="evenodd" clip-rule="evenodd" d="M179.607 81C91.9255 81 20.8453 152.634 20.8453 241C20.8453 263.091 38.6154 281 60.5358 281C148.218 281 219.298 209.366 219.298 121C219.298 98.9086 201.528 81 179.607 81Z" fill="white"/>
<path d="M116.102 121C94.1139 121 76.412 138.84 76.412 161V165H96.2572V161C96.2572 149.92 105.108 141 116.102 141C127.097 141 135.948 149.92 135.948 161C135.948 165.51 132.235 174.361 128.357 177.436C107.302 194.136 107.524 191.378 76.412 213V241H116.102H155.793V221V213H135.948V221H116.102H100.226C124.795 203.565 126.591 203.988 145.843 186.625C152.011 181.062 155.793 170.021 155.793 161C155.793 138.84 138.091 121 116.102 121Z" fill="#960000"/>
<path d="M50.6132 31C39.6189 31 30.7679 39.92 30.7679 51V53H40.6906V51C40.6906 45.46 45.1161 41 50.6132 41C56.1103 41 60.5358 45.46 60.5358 51C60.5358 53.255 58.6793 57.6803 56.7405 59.218C46.213 67.5679 46.3241 66.1889 30.7679 77V91H50.6132H70.4584V81V77H60.5358V81H50.6132H42.6751C54.9594 72.2825 55.8577 72.4938 65.4834 63.8125C68.5675 61.031 70.4584 55.5104 70.4584 51C70.4584 39.92 61.6074 31 50.6132 31Z" fill="white"/>
<path d="M189.53 331C200.524 331 209.375 322.08 209.375 311V309H199.452V311C199.452 316.54 195.027 321 189.53 321C184.033 321 179.607 316.54 179.607 311C179.607 308.745 181.464 304.32 183.402 302.782C193.93 294.432 193.819 295.811 209.375 285V271H189.53H169.685V281V285H179.607V281H189.53H197.468C185.184 289.717 184.285 289.506 174.66 298.187C171.576 300.969 169.685 306.49 169.685 311C169.685 322.08 178.536 331 189.53 331Z" fill="white"/>
</svg>
