<svg width="241" height="362" viewBox="0 0 241 362" fill="none" xmlns="http://www.w3.org/2000/svg">
<path d="M199.452 1H40.6905C18.77 1 1 18.9086 1 41V321C1 343.091 18.77 361 40.6905 361H199.452C221.373 361 239.143 343.091 239.143 321V41C239.143 18.9086 221.373 1 199.452 1Z" fill="white" stroke="black" stroke-width="2"/>
<path d="M199.452 21H40.6905C29.7303 21 20.8453 29.9543 20.8453 41V321C20.8453 332.046 29.7303 341 40.6905 341H199.452C210.413 341 219.298 332.046 219.298 321V41C219.298 29.9543 210.413 21 199.452 21Z" fill="#960000"/>
<path fill-rule="evenodd" clip-rule="evenodd" d="M179.607 81C91.9254 81 20.8453 152.634 20.8453 241C20.8453 263.091 38.6153 281 60.5358 281C148.218 281 219.298 209.366 219.298 121C219.298 98.9086 201.528 81 179.607 81Z" fill="white"/>
<path d="M120.071 121C103.631 121 90.3036 134.431 90.3036 151C90.3036 157.795 92.6029 163.97 96.3812 169C86.6851 176.28 80.381 187.824 80.381 201C80.381 223.16 98.0829 241 120.071 241C142.06 241 159.762 223.16 159.762 201C159.762 187.824 153.458 176.28 143.762 169C147.54 163.97 149.839 157.795 149.839 151C149.839 134.431 136.512 121 120.071 121ZM120.071 141C125.552 141 129.994 145.477 129.994 151C129.994 156.523 125.552 161 120.071 161C114.591 161 110.149 156.523 110.149 151C110.149 145.477 114.591 141 120.071 141ZM118.087 181C118.756 180.932 119.384 181 120.071 181C131.066 181 139.917 189.92 139.917 201C139.917 212.08 131.066 221 120.071 221C109.077 221 100.226 212.08 100.226 201C100.226 190.612 108.056 182.02 118.087 181Z" fill="#960000"/>
<path d="M50.6131 31C42.393 31 35.7292 37.7156 35.7292 46C35.7292 49.3974 36.8789 52.4852 38.768 55C33.92 58.6398 30.7679 64.412 30.7679 71C30.7679 82.08 39.6189 91 50.6131 91C61.6074 91 70.4584 82.08 70.4584 71C70.4584 64.412 67.3063 58.6398 62.4583 55C64.3474 52.4852 65.4971 49.3974 65.4971 46C65.4971 37.7156 58.8333 31 50.6131 31ZM50.6131 41C53.3532 41 55.5744 43.2386 55.5744 46C55.5744 48.7614 53.3532 51 50.6131 51C47.8731 51 45.6518 48.7614 45.6518 46C45.6518 43.2386 47.8731 41 50.6131 41ZM49.6209 60.9999C49.9551 60.9639 50.2695 60.9999 50.6131 60.9999C56.1103 60.9999 60.5357 65.46 60.5357 71C60.5357 76.54 56.1103 81 50.6131 81C45.116 81 40.6905 76.54 40.6905 71C40.6905 65.8062 44.6052 61.5101 49.6209 60.9999Z" fill="white"/>
<path d="M189.53 331C181.31 331 174.646 324.284 174.646 316C174.646 312.603 175.796 309.515 177.685 307C172.837 303.36 169.685 297.588 169.685 291C169.685 279.92 178.536 271 189.53 271C200.524 271 209.375 279.92 209.375 291C209.375 297.588 206.223 303.36 201.375 307C203.264 309.515 204.414 312.603 204.414 316C204.414 324.284 197.75 331 189.53 331ZM189.53 321C192.27 321 194.491 318.761 194.491 316C194.491 313.239 192.27 311 189.53 311C186.79 311 184.568 313.239 184.568 316C184.568 318.761 186.79 321 189.53 321ZM188.538 301C188.872 301.036 189.186 301 189.53 301C195.027 301 199.452 296.54 199.452 291C199.452 285.46 195.027 281 189.53 281C184.033 281 179.607 285.46 179.607 291C179.607 296.194 183.522 300.49 188.538 301Z" fill="white"/>
</svg>
