<svg width="241" height="362" viewBox="0 0 241 362" fill="none" xmlns="http://www.w3.org/2000/svg">
<path d="M199.452 1H40.6905C18.77 1 1 18.9086 1 41V321C1 343.091 18.77 361 40.6905 361H199.452C221.373 361 239.143 343.091 239.143 321V41C239.143 18.9086 221.373 1 199.452 1Z" fill="white" stroke="black" stroke-width="2"/>
<path d="M199.452 21H40.6904C29.7302 21 20.8452 29.9543 20.8452 41V321C20.8452 332.046 29.7302 341 40.6904 341H199.452C210.413 341 219.298 332.046 219.298 321V41C219.298 29.9543 210.413 21 199.452 21Z" fill="#FB590E"/>
<path fill-rule="evenodd" clip-rule="evenodd" d="M179.607 81C91.9253 81 20.8452 152.634 20.8452 241C20.8452 263.091 38.6152 281 60.5356 281C148.217 281 219.298 209.366 219.298 121C219.298 98.9086 201.528 81 179.607 81Z" fill="white"/>
<path d="M132.829 151H93.1386C87.6585 151 82.0698 155.042 80.656 160.03L60.2606 231.97C58.8467 236.957 62.143 241 67.6231 241H107.314C112.794 241 118.382 236.957 119.796 231.97L140.192 160.03C141.606 155.042 138.309 151 132.829 151Z" fill="white" stroke="black" stroke-width="2.03962"/>
<path d="M120.071 161H100.226C94.7461 161 89.1574 165.043 87.7435 170.03L73.0182 221.97C71.6044 226.957 74.9008 231 80.3809 231H100.226C105.706 231 111.295 226.957 112.709 221.97L127.434 170.03C128.848 165.043 125.551 161 120.071 161Z" fill="#FB590E"/>
<path d="M172.519 121H132.829C127.349 121 121.76 125.043 120.346 130.03L99.9509 201.97C98.537 206.957 101.833 211 107.313 211H147.004C152.484 211 158.073 206.957 159.487 201.97L179.882 130.03C181.296 125.043 177.999 121 172.519 121Z" fill="white" stroke="black" stroke-width="2.03962"/>
<path d="M159.762 131H139.916C134.436 131 128.848 135.043 127.434 140.03L112.708 191.97C111.295 196.957 114.591 201 120.071 201H139.916C145.396 201 150.985 196.957 152.399 191.97L167.124 140.03C168.538 135.043 165.242 131 159.762 131Z" fill="#FB590E"/>
<path fill-rule="evenodd" clip-rule="evenodd" d="M34.7368 50.9998V61H24.8142V70.9998H34.7368V80.9998H44.6594V70.9998H54.5821V61H44.6594V50.9998H34.7368Z" fill="white"/>
<path d="M80.3809 31C69.3866 31 60.5356 39.92 60.5356 51V53H70.4583V51C70.4583 45.46 74.8838 41 80.3809 41C85.878 41 90.3035 45.46 90.3035 51C90.3035 53.255 88.4469 57.6803 86.5081 59.218C75.9806 67.5679 76.0918 66.1889 60.5356 77V91H80.3809H100.226V81V77H90.3035V81H80.3809H72.4428C84.7271 72.2825 85.6253 72.4938 95.251 63.8125C98.3351 61.031 100.226 55.5104 100.226 51C100.226 39.92 91.3751 31 80.3809 31Z" fill="white"/>
<path fill-rule="evenodd" clip-rule="evenodd" d="M205.406 311V301H215.329V291.001H205.406V281H195.483V291.001H185.561V301H195.483V311H205.406Z" fill="white"/>
<path d="M159.762 331C170.756 331 179.607 322.08 179.607 311V309H169.684V311C169.684 316.54 165.259 321 159.762 321C154.265 321 149.839 316.54 149.839 311C149.839 308.746 151.696 304.32 153.635 302.782C164.162 294.433 164.051 295.812 179.607 285V271H159.762H139.917V281V285H149.839V281H159.762H167.7C155.416 289.718 154.517 289.507 144.892 298.188C141.808 300.97 139.917 306.49 139.917 311C139.917 322.08 148.768 331 159.762 331Z" fill="white"/>
</svg>
