<svg width="241" height="362" viewBox="0 0 241 362" fill="none" xmlns="http://www.w3.org/2000/svg">
<path d="M199.452 1H40.6905C18.77 1 1 18.9086 1 41V321C1 343.091 18.77 361 40.6905 361H199.452C221.373 361 239.143 343.091 239.143 321V41C239.143 18.9086 221.373 1 199.452 1Z" fill="white" stroke="black" stroke-width="2"/>
<path d="M199.452 21H40.6905C29.7303 21 20.8452 29.9543 20.8452 41V321C20.8452 332.046 29.7303 341 40.6905 341H199.452C210.413 341 219.298 332.046 219.298 321V41C219.298 29.9543 210.413 21 199.452 21Z" fill="#FB590E"/>
<path fill-rule="evenodd" clip-rule="evenodd" d="M179.607 80.9999C91.9254 80.9999 20.8452 152.634 20.8452 241C20.8452 263.091 38.6153 281 60.5357 281C148.217 281 219.298 209.365 219.298 121C219.298 98.9085 201.528 80.9999 179.607 80.9999Z" fill="white"/>
<path fill-rule="evenodd" clip-rule="evenodd" d="M86.3345 121V161H106.18V141H145.87L106.18 241H126.025L165.715 141V121H106.18H86.3345Z" fill="#FB590E"/>
<path fill-rule="evenodd" clip-rule="evenodd" d="M30.7679 31V51H40.6905V41H60.5357L40.6905 91H50.6131L70.4583 41V31H40.6905H30.7679Z" fill="white"/>
<path fill-rule="evenodd" clip-rule="evenodd" d="M209.375 331V311H199.452V321H179.607L199.452 271H189.53L169.685 321V331H199.452H209.375Z" fill="white"/>
</svg>
