<svg width="241" height="362" viewBox="0 0 241 362" fill="none" xmlns="http://www.w3.org/2000/svg">
<path d="M199.452 1H40.6905C18.77 1 1 18.9086 1 41V321C1 343.091 18.77 361 40.6905 361H199.452C221.373 361 239.143 343.091 239.143 321V41C239.143 18.9086 221.373 1 199.452 1Z" fill="white" stroke="black" stroke-width="2"/>
<path d="M199.452 21H40.6905C29.7303 21 20.8453 29.9543 20.8453 41V321C20.8453 332.046 29.7303 341 40.6905 341H199.452C210.413 341 219.298 332.046 219.298 321V41C219.298 29.9543 210.413 21 199.452 21Z" fill="#FB590E"/>
<path fill-rule="evenodd" clip-rule="evenodd" d="M179.607 81C91.9254 81 20.8453 152.634 20.8453 241C20.8453 263.091 38.6153 281 60.5358 281C148.218 281 219.298 209.366 219.298 121C219.298 98.9086 201.528 81 179.607 81Z" fill="white"/>
<path d="M84.35 121V161V181H124.041C135.035 181 143.886 189.92 143.886 201C143.886 212.08 135.035 221 124.041 221C113.046 221 104.195 212.08 104.195 201H84.35C84.35 223.16 102.052 241 124.041 241C146.029 241 163.731 223.16 163.731 201C163.731 178.84 146.029 161 124.041 161H104.195V141H124.041H159.762V121H124.041H104.195H84.35Z" fill="#FB590E"/>
<path d="M30.7679 31V51V61H50.6131C56.1103 61 60.5357 65.46 60.5357 71C60.5357 76.54 56.1103 81 50.6131 81C45.116 81 40.6905 76.54 40.6905 71H30.7679C30.7679 82.08 39.6189 91 50.6131 91C61.6074 91 70.4584 82.08 70.4584 71C70.4584 59.92 61.6074 51 50.6131 51H40.6905V41H50.6131H68.4738V31H50.6131H40.6905H30.7679Z" fill="white"/>
<path d="M209.375 331V311V301H189.53C184.033 301 179.607 296.54 179.607 291C179.607 285.46 184.033 281 189.53 281C195.027 281 199.452 285.46 199.452 291H209.375C209.375 279.92 200.524 271 189.53 271C178.536 271 169.685 279.92 169.685 291C169.685 302.08 178.536 311 189.53 311H199.452V321H189.53H171.669V331H189.53H199.452H209.375Z" fill="white"/>
</svg>
