<svg width="241" height="362" viewBox="0 0 241 362" fill="none" xmlns="http://www.w3.org/2000/svg">
<path d="M199.452 1H40.6905C18.77 1 1 18.9086 1 41V321C1 343.091 18.77 361 40.6905 361H199.452C221.373 361 239.143 343.091 239.143 321V41C239.143 18.9086 221.373 1 199.452 1Z" fill="white" stroke="black" stroke-width="2"/>
<path d="M199.452 21H40.6905C29.7303 21 20.8453 29.9543 20.8453 41V321C20.8453 332.046 29.7303 341 40.6905 341H199.452C210.413 341 219.298 332.046 219.298 321V41C219.298 29.9543 210.413 21 199.452 21Z" fill="#FB590E"/>
<path fill-rule="evenodd" clip-rule="evenodd" d="M179.607 81C91.9254 81 20.8453 152.634 20.8453 241C20.8453 263.091 38.6153 281 60.5358 281C148.218 281 219.298 209.366 219.298 121C219.298 98.9086 201.528 81 179.607 81Z" fill="white"/>
<path fill-rule="evenodd" clip-rule="evenodd" d="M120.071 121C98.151 121 80.381 138.909 80.381 161C80.381 183.091 98.151 201 120.071 201C127.283 201 134.088 199.013 139.917 195.625V201C139.917 212.046 131.032 221 120.071 221C112.315 221 105.723 216.412 102.459 209.875L84.5981 218.875C91.1045 232.012 104.512 241 120.071 241C141.992 241 159.762 223.091 159.762 201V161C159.762 138.909 141.992 121 120.071 121ZM120.071 141C131.032 141 139.917 149.954 139.917 161C139.917 172.046 131.032 181 120.071 181C109.111 181 100.226 172.046 100.226 161C100.226 149.954 109.111 141 120.071 141ZM100.226 245V253H139.917V245H100.226Z" fill="#FB590E"/>
<path fill-rule="evenodd" clip-rule="evenodd" d="M50.6132 91C61.5734 91 70.4584 82.0457 70.4584 71V51C70.4584 39.9543 61.5734 31 50.6132 31C39.653 31 30.7679 39.9543 30.7679 51C30.7679 62.0456 39.653 71 50.6132 71C54.219 71 57.6217 70.0065 60.5358 68.3125V71C60.5358 76.5228 56.0933 81 50.6132 81C46.7349 81 43.4389 78.7059 41.8068 75.4375L32.8765 79.9375C36.1296 86.5062 42.8334 91 50.6132 91ZM50.6132 61C45.1331 61 40.6905 56.5228 40.6905 51C40.6905 45.4772 45.1331 41 50.6132 41C56.0933 41 60.5358 45.4772 60.5358 51C60.5358 56.5228 56.0933 61 50.6132 61Z" fill="white"/>
<path fill-rule="evenodd" clip-rule="evenodd" d="M189.53 271C178.57 271 169.685 279.954 169.685 291V311C169.685 322.046 178.57 331 189.53 331C200.49 331 209.375 322.046 209.375 311C209.375 299.954 200.49 291 189.53 291C185.924 291 182.521 291.993 179.607 293.687V291C179.607 285.477 184.05 281 189.53 281C193.408 281 196.704 283.294 198.336 286.562L207.267 282.062C204.013 275.494 197.31 271 189.53 271ZM189.53 301C195.01 301 199.452 305.477 199.452 311C199.452 316.523 195.01 321 189.53 321C184.05 321 179.607 316.523 179.607 311C179.607 305.477 184.05 301 189.53 301Z" fill="white"/>
</svg>
