<svg width="241" height="362" viewBox="0 0 241 362" fill="none" xmlns="http://www.w3.org/2000/svg">
<path d="M199.452 1H40.6905C18.77 1 1 18.9086 1 41V321C1 343.091 18.77 361 40.6905 361H199.452C221.373 361 239.143 343.091 239.143 321V41C239.143 18.9086 221.373 1 199.452 1Z" fill="white" stroke="black" stroke-width="2"/>
<path d="M199.452 21H40.6905C29.7302 21 20.8452 29.9543 20.8452 41V321C20.8452 332.046 29.7302 341 40.6905 341H199.452C210.413 341 219.298 332.046 219.298 321V41C219.298 29.9543 210.413 21 199.452 21Z" fill="#9F00F5"/>
<path fill-rule="evenodd" clip-rule="evenodd" d="M179.607 81C91.9253 81 20.8452 152.634 20.8452 241C20.8452 263.091 38.6152 281 60.5357 281C148.217 281 219.298 209.366 219.298 121C219.298 98.9086 201.528 81 179.607 81Z" fill="white"/>
<path fill-rule="evenodd" clip-rule="evenodd" d="M120.071 121C98.1509 121 80.3809 138.909 80.3809 161V201C80.3809 223.091 98.1509 241 120.071 241C141.992 241 159.762 223.091 159.762 201C159.762 178.909 141.992 161 120.071 161C112.86 161 106.054 162.987 100.226 166.375V161C100.226 149.954 109.111 141 120.071 141C127.828 141 134.42 145.588 137.684 152.125L155.545 143.125C149.038 129.988 135.631 121 120.071 121ZM120.071 181C131.032 181 139.917 189.954 139.917 201C139.917 212.046 131.032 221 120.071 221C109.111 221 100.226 212.046 100.226 201C100.226 189.954 109.111 181 120.071 181ZM100.226 245V253H139.917V245H100.226Z" fill="#9F00F5"/>
<path fill-rule="evenodd" clip-rule="evenodd" d="M50.6131 31C39.6528 31 30.7678 39.9543 30.7678 51V70.9999C30.7678 82.0456 39.6528 91 50.6131 91C61.5733 91 70.4583 82.0456 70.4583 70.9999C70.4583 59.9542 61.5733 51 50.6131 51C47.0072 51 43.6046 51.9935 40.6904 53.6875V51C40.6904 45.4772 45.133 41 50.6131 41C54.4913 41 57.7874 43.2941 59.4194 46.5625L68.3497 42.0625C65.0966 35.4938 58.3929 31 50.6131 31ZM50.6131 61C56.0931 61 60.5357 65.477 60.5357 70.9999C60.5357 76.5227 56.0931 81 50.6131 81C45.133 81 40.6904 76.5227 40.6904 70.9999C40.6904 65.477 45.133 61 50.6131 61Z" fill="white"/>
<path fill-rule="evenodd" clip-rule="evenodd" d="M189.53 331C200.49 331 209.375 322.046 209.375 311V291C209.375 279.954 200.49 271 189.53 271C178.57 271 169.685 279.954 169.685 291C169.685 302.046 178.57 311 189.53 311C193.136 311 196.538 310.006 199.452 308.312V311C199.452 316.523 195.01 321 189.53 321C185.652 321 182.355 318.706 180.723 315.437L171.793 319.937C175.046 326.506 181.75 331 189.53 331ZM189.53 301C184.05 301 179.607 296.523 179.607 291C179.607 285.477 184.05 281 189.53 281C195.01 281 199.452 285.477 199.452 291C199.452 296.523 195.01 301 189.53 301Z" fill="white"/>
</svg>
