<svg width="241" height="362" viewBox="0 0 241 362" fill="none" xmlns="http://www.w3.org/2000/svg">
<path d="M199.452 1H40.6905C18.77 1 1 18.9086 1 41V321C1 343.091 18.77 361 40.6905 361H199.452C221.373 361 239.143 343.091 239.143 321V41C239.143 18.9086 221.373 1 199.452 1Z" fill="white" stroke="black" stroke-width="2"/>
<path d="M199.452 21H40.6904C29.7302 21 20.8452 29.9543 20.8452 41V321C20.8452 332.046 29.7302 341 40.6904 341H199.452C210.413 341 219.298 332.046 219.298 321V41C219.298 29.9543 210.413 21 199.452 21Z" fill="#9F00F5"/>
<path fill-rule="evenodd" clip-rule="evenodd" d="M179.607 81C91.9253 81 20.8452 152.634 20.8452 241C20.8452 263.091 38.6152 281 60.5356 281C148.217 281 219.298 209.366 219.298 121C219.298 98.9086 201.528 81 179.607 81Z" fill="white"/>
<path d="M120.071 116L129.994 126L90.3035 166C80.3809 176 80.3809 196 90.3035 206L110.149 186L149.839 146L159.762 156V116H120.071Z" fill="#9F00F5"/>
<path d="M120.071 246L110.149 236L149.839 196C159.762 186 159.762 166 149.839 156L129.994 176L90.3035 216L80.3809 206V246H120.071Z" fill="#9F00F5"/>
<path d="M50.613 30.9999L55.5743 35.9999L35.729 55.9999C30.7677 60.9999 30.7677 70.9999 35.729 75.9999L45.6517 65.9999L65.4969 45.9999L70.4582 50.9999V30.9999H50.613Z" fill="white"/>
<path d="M50.613 95.9999L45.6517 90.9999L65.4969 70.9999C70.4582 65.9999 70.4582 55.9999 65.4969 50.9999L55.5743 60.9999L35.7291 80.9999L30.7678 75.9999V95.9999H50.613Z" fill="white"/>
<path d="M189.53 266L194.491 271L174.646 291C169.684 296 169.684 306 174.646 311L184.568 301L204.414 281L209.375 286V266H189.53Z" fill="white"/>
<path d="M189.53 331L184.568 326L204.414 306C209.375 301 209.375 291 204.414 286L194.491 296L174.646 316L169.684 311V331H189.53Z" fill="white"/>
</svg>
