<svg width="249" height="370" viewBox="0 0 249 370" fill="none" xmlns="http://www.w3.org/2000/svg">
<g filter="url(#filter0_d_1_895)">
<path d="M203.452 1H44.6905C22.77 1 5 18.9086 5 41V321C5 343.091 22.77 361 44.6905 361H203.452C225.373 361 243.143 343.091 243.143 321V41C243.143 18.9086 225.373 1 203.452 1Z" fill="white" stroke="black" stroke-width="2"/>
<path d="M203.452 21H44.6905C33.7302 21 24.8452 29.9543 24.8452 41V321C24.8452 332.046 33.7302 341 44.6905 341H203.452C214.413 341 223.298 332.046 223.298 321V41C223.298 29.9543 214.413 21 203.452 21Z" fill="black"/>
<path fill-rule="evenodd" clip-rule="evenodd" d="M183.607 81C95.9253 81 24.8452 152.634 24.8452 241C24.8452 263.091 42.6152 281 64.5357 281C152.218 281 223.298 209.366 223.298 121C223.298 98.9086 205.528 81 183.607 81Z" fill="white"/>
<path fill-rule="evenodd" clip-rule="evenodd" d="M36.5043 181C29.0497 199.542 24.8452 219.763 24.8452 241C24.8452 263.091 42.6152 281 64.5357 281L124.071 181H36.5043Z" fill="#FCBD25"/>
<path fill-rule="evenodd" clip-rule="evenodd" d="M124.071 181L64.5356 281C131.145 281 188.075 239.611 211.638 181H124.071Z" fill="#FB590E"/>
<path fill-rule="evenodd" clip-rule="evenodd" d="M183.607 81C116.998 81 60.0681 122.389 36.5043 181H124.071L183.607 81Z" fill="#960000"/>
<path fill-rule="evenodd" clip-rule="evenodd" d="M183.607 81L124.071 181H211.639C219.093 162.458 223.298 142.237 223.298 121C223.298 98.9086 205.528 81 183.607 81Z" fill="#9F00F5"/>
<path fill-rule="evenodd" clip-rule="evenodd" d="M37.6826 55.9998C35.8189 60.6352 34.7678 65.6906 34.7678 70.9998C34.7678 76.5226 39.2104 80.9998 44.6904 80.9998L59.5744 55.9998H37.6826Z" fill="#FCBD25"/>
<path fill-rule="evenodd" clip-rule="evenodd" d="M59.5744 55.9998L44.6904 80.9998C61.3428 80.9998 75.5752 70.6524 81.4661 55.9998H59.5744Z" fill="#FB590E"/>
<path fill-rule="evenodd" clip-rule="evenodd" d="M74.4583 30.9998C57.806 30.9998 43.5736 41.3471 37.6826 55.9998H59.5744L74.4583 30.9998Z" fill="#960000"/>
<path fill-rule="evenodd" clip-rule="evenodd" d="M74.4583 30.9998L59.5743 55.9998H81.4661C83.3298 51.3643 84.3809 46.3089 84.3809 40.9998C84.3809 35.4769 79.9383 30.9998 74.4583 30.9998Z" fill="#9F00F5"/>
<path fill-rule="evenodd" clip-rule="evenodd" d="M166.677 306C164.813 310.635 163.762 315.691 163.762 321C163.762 326.523 168.204 331 173.684 331L188.568 306H166.677Z" fill="#FCBD25"/>
<path fill-rule="evenodd" clip-rule="evenodd" d="M188.568 306L173.684 331C190.337 331 204.569 320.652 210.46 306H188.568Z" fill="#FB590E"/>
<path fill-rule="evenodd" clip-rule="evenodd" d="M203.452 281C186.8 281 172.568 291.347 166.677 306H188.568L203.452 281Z" fill="#960000"/>
<path fill-rule="evenodd" clip-rule="evenodd" d="M203.452 281L188.568 306H210.46C212.324 301.364 213.375 296.309 213.375 291C213.375 285.477 208.932 281 203.452 281Z" fill="#9F00F5"/>
<path d="M183.607 80.9999C116.998 80.9999 60.0681 122.389 36.5043 181C29.0497 199.542 24.8452 219.763 24.8452 241C24.8452 263.091 42.6152 281 64.5357 281C131.145 281 188.075 239.611 211.639 181C219.093 162.458 223.298 142.237 223.298 121C223.298 98.9085 205.528 80.9999 183.607 80.9999Z" stroke="white" stroke-width="4"/>
<path d="M74.4583 30.9999C57.806 30.9999 43.5736 41.3472 37.6826 55.9999C35.8189 60.6353 34.7678 65.6907 34.7678 70.9999C34.7678 76.5227 39.2104 80.9999 44.6904 80.9999C61.3428 80.9999 75.5752 70.6526 81.4661 55.9999C83.3298 51.3644 84.3809 46.309 84.3809 40.9999C84.3809 35.477 79.9384 30.9999 74.4583 30.9999Z" stroke="white" stroke-width="4"/>
<path d="M203.452 281C186.8 281 172.568 291.347 166.677 306C164.813 310.635 163.762 315.691 163.762 321C163.762 326.523 168.204 331 173.684 331C190.337 331 204.569 320.653 210.46 306C212.324 301.364 213.375 296.309 213.375 291C213.375 285.477 208.932 281 203.452 281Z" stroke="white" stroke-width="4"/>
</g>
<defs>
<filter id="filter0_d_1_895" x="0" y="0" width="248.143" height="370" filterUnits="userSpaceOnUse" color-interpolation-filters="sRGB">
<feFlood flood-opacity="0" result="BackgroundImageFix"/>
<feColorMatrix in="SourceAlpha" type="matrix" values="0 0 0 0 0 0 0 0 0 0 0 0 0 0 0 0 0 0 127 0" result="hardAlpha"/>
<feOffset dy="4"/>
<feGaussianBlur stdDeviation="2"/>
<feComposite in2="hardAlpha" operator="out"/>
<feColorMatrix type="matrix" values="0 0 0 0 0 0 0 0 0 0 0 0 0 0 0 0 0 0 0.25 0"/>
<feBlend mode="normal" in2="BackgroundImageFix" result="effect1_dropShadow_1_895"/>
<feBlend mode="normal" in="SourceGraphic" in2="effect1_dropShadow_1_895" result="shape"/>
</filter>
</defs>
</svg>
