<svg width="241" height="362" viewBox="0 0 241 362" fill="none" xmlns="http://www.w3.org/2000/svg">
<path d="M199.452 1H40.6905C18.77 1 1 18.9086 1 41V321C1 343.091 18.77 361 40.6905 361H199.452C221.373 361 239.143 343.091 239.143 321V41C239.143 18.9086 221.373 1 199.452 1Z" fill="white" stroke="black" stroke-width="2"/>
<path d="M199.452 21H40.6905C29.7302 21 20.8452 29.9543 20.8452 41V321C20.8452 332.046 29.7302 341 40.6905 341H199.452C210.413 341 219.298 332.046 219.298 321V41C219.298 29.9543 210.413 21 199.452 21Z" fill="black"/>
<path fill-rule="evenodd" clip-rule="evenodd" d="M179.607 81C91.9253 81 20.8452 152.634 20.8452 241C20.8452 263.091 38.6152 281 60.5357 281C148.217 281 219.298 209.366 219.298 121C219.298 98.9086 201.528 81 179.607 81Z" fill="white"/>
<path d="M79.9841 31L60.5356 71V81H84.3499V91H94.2725V81H100.226V71H94.2725V51H84.3499V71H70.8551L90.3035 31H79.9841Z" fill="white"/>
<path fill-rule="evenodd" clip-rule="evenodd" d="M34.7368 51V61H24.8142V70.9998H34.7368V81H44.6594V70.9998H54.5821V61H44.6594V51H34.7368Z" fill="white"/>
<path d="M160.159 331L179.607 291V281H155.793V271H145.87V281H139.917V291H145.87V311H155.793V291H169.288L149.839 331H160.159Z" fill="white"/>
<path fill-rule="evenodd" clip-rule="evenodd" d="M205.406 311V301H215.329V291H205.406V281H195.483V291H185.561V301H195.483V311H205.406Z" fill="white"/>
<path d="M122.907 131H83.2161C77.736 131 72.1473 135.042 70.7334 140.029L50.3381 211.97C48.9242 216.957 52.2206 221 57.7007 221H97.3912C102.871 221 108.46 216.957 109.874 211.97L130.269 140.029C131.683 135.042 128.387 131 122.907 131Z" fill="white" stroke="black" stroke-width="2.03962"/>
<path d="M110.149 141H90.3035C84.8234 141 79.2347 145.043 77.8209 150.03L63.0956 201.97C61.6817 206.957 64.9781 211 70.4582 211H90.3034C95.7835 211 101.372 206.957 102.786 201.97L117.511 150.03C118.925 145.043 115.629 141 110.149 141Z" fill="#960000"/>
<path d="M162.597 101H122.907C117.426 101 111.838 105.042 110.424 110.029L90.0285 181.97C88.6146 186.957 91.911 191 97.3911 191H137.082C142.562 191 148.15 186.957 149.564 181.97L169.96 110.029C171.373 105.042 168.077 101 162.597 101Z" fill="white" stroke="black" stroke-width="2.03962"/>
<path d="M149.839 111H129.994C124.514 111 118.925 115.043 117.511 120.03L102.786 171.97C101.372 176.957 104.669 181 110.149 181H129.994C135.474 181 141.063 176.957 142.477 171.97L157.202 120.03C158.616 115.043 155.319 111 149.839 111Z" fill="#9F00F5"/>
<path d="M152.674 161H112.984C107.504 161 101.915 165.042 100.501 170.029L80.1059 241.97C78.692 246.957 81.9884 251 87.4685 251H127.159C132.639 251 138.228 246.957 139.642 241.97L160.037 170.029C161.451 165.042 158.154 161 152.674 161Z" fill="white" stroke="black" stroke-width="2.03962"/>
<path d="M139.917 171H120.071C114.591 171 109.003 175.043 107.589 180.03L92.8635 231.97C91.4497 236.957 94.746 241 100.226 241H120.071C125.551 241 131.14 236.957 132.554 231.97L147.279 180.03C148.693 175.043 145.397 171 139.917 171Z" fill="#FCBD25"/>
<path d="M192.365 131H152.674C147.194 131 141.606 135.043 140.192 140.03L119.796 211.97C118.382 216.957 121.679 221 127.159 221H166.849C172.33 221 177.918 216.957 179.332 211.97L199.727 140.03C201.141 135.043 197.845 131 192.365 131Z" fill="white" stroke="black" stroke-width="2.03962"/>
<path d="M179.607 141H159.762C154.282 141 148.693 145.043 147.279 150.03L132.554 201.97C131.14 206.957 134.436 211 139.917 211H159.762C165.242 211 170.831 206.957 172.244 201.97L186.97 150.03C188.384 145.043 185.087 141 179.607 141Z" fill="#FB590E"/>
</svg>
