<svg width="241" height="362" viewBox="0 0 241 362" fill="none" xmlns="http://www.w3.org/2000/svg">
<path d="M199.452 1H40.6905C18.77 1 1 18.9086 1 41V321C1 343.091 18.77 361 40.6905 361H199.452C221.373 361 239.143 343.091 239.143 321V41C239.143 18.9086 221.373 1 199.452 1Z" fill="white" stroke="black" stroke-width="2"/>
<path d="M199.452 21H40.6906C29.7304 21 20.8453 29.9543 20.8453 41V321C20.8453 332.046 29.7304 341 40.6906 341H199.452C210.413 341 219.298 332.046 219.298 321V41C219.298 29.9543 210.413 21 199.452 21Z" fill="#FCBD25"/>
<path fill-rule="evenodd" clip-rule="evenodd" d="M179.607 81C91.9255 81 20.8453 152.634 20.8453 241C20.8453 263.091 38.6154 281 60.5358 281C148.218 281 219.298 209.366 219.298 121C219.298 98.9086 201.528 81 179.607 81Z" fill="white"/>
<path fill-rule="evenodd" clip-rule="evenodd" d="M120.196 121C104.959 120.98 89.6647 126.8 78.0245 138.5C54.744 161.901 54.6808 199.913 77.9007 223.375C101.12 246.837 138.838 246.901 162.119 223.5C185.399 200.099 185.463 162.087 162.243 138.625C150.633 126.894 135.432 121.02 120.196 121ZM120.072 141C127.017 141.008 133.994 142.84 140.165 146.5L85.8388 201.25C76.8673 185.899 78.9453 165.788 92.0404 152.625C99.8006 144.825 109.914 140.987 120.072 141ZM154.305 160.625C163.338 175.988 161.224 196.186 148.103 209.375C134.995 222.551 115.069 224.488 99.8545 215.375L154.305 160.625Z" fill="#FCBD25"/>
<path fill-rule="evenodd" clip-rule="evenodd" d="M60.5976 31C52.9808 30.988 45.3352 33.8995 39.5161 39.7491C27.8781 51.4485 27.8465 70.4528 39.4541 82.1827C51.0618 93.9126 69.9174 93.9445 81.5555 82.2451C93.1935 70.5458 93.225 51.5415 81.6173 39.8116C75.8134 33.9466 68.2145 31.01 60.5976 31ZM60.5358 40.999C64.0078 41.003 67.4956 41.9191 70.5805 43.7488L43.4225 71.1212C38.9375 63.4463 39.9762 53.3919 46.5225 46.811C50.4019 42.9112 55.4579 40.9923 60.5358 40.999ZM77.6492 50.8105C82.1651 58.4913 81.1083 68.5894 74.5489 75.1833C67.9958 81.771 58.0348 82.7393 50.4288 78.1831L77.6492 50.8105Z" fill="white"/>
<path fill-rule="evenodd" clip-rule="evenodd" d="M179.669 271C172.052 270.988 164.407 273.9 158.588 279.749C146.95 291.448 146.918 310.453 158.526 322.183C170.133 333.913 188.989 333.944 200.627 322.245C212.265 310.546 212.296 291.542 200.689 279.812C194.885 273.947 187.286 271.01 179.669 271ZM179.607 280.999C183.079 281.003 186.567 281.919 189.652 283.749L162.494 311.121C158.009 303.446 159.048 293.392 165.594 286.811C169.473 282.911 174.529 280.992 179.607 280.999ZM196.721 290.811C201.236 298.491 200.18 308.589 193.62 315.183C187.067 321.771 177.106 322.739 169.5 318.183L196.721 290.811Z" fill="white"/>
</svg>
