<svg width="241" height="362" viewBox="0 0 241 362" fill="none" xmlns="http://www.w3.org/2000/svg">
<path d="M199.452 1H40.6905C18.77 1 1 18.9086 1 41V321C1 343.091 18.77 361 40.6905 361H199.452C221.373 361 239.143 343.091 239.143 321V41C239.143 18.9086 221.373 1 199.452 1Z" fill="white" stroke="black" stroke-width="2"/>
<path d="M199.452 21H40.6905C29.7302 21 20.8452 29.9543 20.8452 41V321C20.8452 332.046 29.7302 341 40.6905 341H199.452C210.413 341 219.298 332.046 219.298 321V41C219.298 29.9543 210.413 21 199.452 21Z" fill="#FCBD25"/>
<path fill-rule="evenodd" clip-rule="evenodd" d="M179.607 81C91.9253 81 20.8452 152.634 20.8452 241C20.8452 263.091 38.6152 281 60.5357 281C148.217 281 219.298 209.366 219.298 121C219.298 98.9086 201.528 81 179.607 81Z" fill="white"/>
<path fill-rule="evenodd" clip-rule="evenodd" d="M112.133 121L92.2882 141V165L112.133 145V241H131.979V121H112.133Z" fill="#FCBD25"/>
<path fill-rule="evenodd" clip-rule="evenodd" d="M40.6906 31L30.7679 41V53L40.6906 43V91H50.6132V31H40.6906Z" fill="white"/>
<path fill-rule="evenodd" clip-rule="evenodd" d="M199.452 331L209.375 321V309L199.452 319V271H189.53V331H199.452Z" fill="white"/>
</svg>
