<svg width="241" height="362" viewBox="0 0 241 362" fill="none" xmlns="http://www.w3.org/2000/svg">
<path d="M199.452 1H40.6905C18.77 1 1 18.9086 1 41V321C1 343.091 18.77 361 40.6905 361H199.452C221.373 361 239.143 343.091 239.143 321V41C239.143 18.9086 221.373 1 199.452 1Z" fill="white" stroke="black" stroke-width="2"/>
<path d="M199.452 21H40.6905C29.7302 21 20.8452 29.9543 20.8452 41V321C20.8452 332.046 29.7302 341 40.6905 341H199.452C210.413 341 219.298 332.046 219.298 321V41C219.298 29.9543 210.413 21 199.452 21Z" fill="#FCBD25"/>
<path fill-rule="evenodd" clip-rule="evenodd" d="M179.607 81C91.9253 81 20.8452 152.634 20.8452 241C20.8452 263.091 38.6152 281 60.5357 281C148.217 281 219.298 209.366 219.298 121C219.298 98.9086 201.528 81 179.607 81Z" fill="white"/>
<path d="M115.309 121L76.4119 201V221H124.04V241H143.886V221H155.793V201H143.886V161H124.04V201H97.051L135.948 121H115.309Z" fill="#FCBD25"/>
<path d="M49.8192 31L30.3708 71V81H54.1851V91H64.1078V81H70.0613V71H64.1078V51H54.1851V71H40.6904L60.1387 31H49.8192Z" fill="white"/>
<path d="M189.53 331L208.978 291V281H185.164V271H175.241V281H169.288V291H175.241V311H185.164V291H198.659L179.21 331H189.53Z" fill="white"/>
</svg>
